<?xml version="1.0" encoding="UTF-8"?>
<svg width="152px" height="40px" viewBox="0 0 152 40" version="1.1" xmlns="http://www.w3.org/2000/svg" xmlns:xlink="http://www.w3.org/1999/xlink">
    <title>British Columbia_White_Horizontal</title>
    <g id="Symbols" stroke="none" stroke-width="1" fill="none" fill-rule="evenodd">
        <g id="Header-for-Traveller" transform="translate(-485.000000, -18.000000)" fill-rule="nonzero">
            <g id="Group-3" transform="translate(485.000000, 16.000000)">
                <g id="British-Columbia_White_Horizontal" transform="translate(0.000000, 2.000000)">
                    <g id="Group_12" transform="translate(63.831000, 7.924000)" fill="#FFFFFF">
                        <path d="M12.055,3.444 C12.055,2.074 11.95,1.716 11.043,1.653 L10.411,1.611 C10.306,1.527 10.327,1.168 10.432,1.147 C11.532,1.042 12.919,0.999 14.832,0.999 C15.9994697,0.93290729 17.1681793,1.10506656 18.267,1.505 C19.2243262,1.86030981 19.8505352,2.78415886 19.826,3.805 C19.826,5.133 18.962,5.805 17.74,6.334 C17.74,6.524 17.909,6.566 18.119,6.608 C19.6660773,6.81778854 20.829271,8.12404659 20.859,9.685 C20.859,11.813 19.11,13.267 15.422,13.267 C14.832,13.267 13.822,13.204 12.977,13.204 C12.071,13.204 11.377,13.246 10.617,13.267 C10.4775682,13.1503128 10.4587872,12.9428275 10.575,12.803 L10.933,12.74 C12.008,12.571 12.05,12.382 12.05,10.44 L12.055,3.444 Z M13.741,5.889 C13.741,6.395 13.762,6.437 14.795,6.395 C16.881,6.332 17.995,5.763 17.995,4.035 C17.995,2.223 16.495,1.548 14.939,1.548 C14.6195494,1.53601188 14.3000844,1.57139567 13.991,1.653 C13.78,1.716 13.691,1.801 13.691,2.138 L13.691,5.889 L13.741,5.889 Z M13.741,10.167 C13.6707519,10.8613035 13.8182328,11.5602647 14.163,12.167 C14.6102051,12.5538278 15.1981959,12.7371447 15.786,12.673 C17.598,12.673 18.986,11.935 18.986,10.102 C18.986,8.648 18.164,6.941 14.919,6.941 C13.819,6.941 13.739,7.046 13.739,7.426 L13.741,10.167 Z" id="Path_335"></path>
                        <path d="M35.068,5.257 C35.068,3.592 35.026,3.318 33.993,3.234 L33.55,3.192 C33.445,3.129 33.487,2.855 33.592,2.792 C34.456,2.834 35.067,2.834 35.784,2.834 C36.484,2.834 37.069,2.813 37.955,2.792 C38.06,2.834 38.102,3.129 37.997,3.192 L37.554,3.234 C36.521,3.318 36.479,3.571 36.479,5.257 L36.479,10.862 C36.479,12.527 36.521,12.762 37.554,12.862 L37.997,12.904 C38.102,12.967 38.06,13.241 37.955,13.304 C37.091,13.262 36.48,13.262 35.784,13.262 C35.046,13.262 34.456,13.283 33.592,13.304 C33.4722995,13.203875 33.4537071,13.0268043 33.55,12.904 L33.993,12.862 C35.026,12.757 35.068,12.525 35.068,10.862 L35.068,5.257 Z" id="Path_336"></path>
                        <path d="M44.761,10.883 C44.761,12.527 44.803,12.783 45.751,12.843 L46.278,12.885 C46.383,12.948 46.341,13.222 46.236,13.285 C45.309,13.243 44.736,13.243 44.087,13.243 C43.438,13.243 42.865,13.264 41.811,13.285 C41.706,13.243 41.685,12.969 41.811,12.885 L42.401,12.843 C43.328,12.759 43.413,12.527 43.413,10.883 L43.413,3.866 C43.413,3.381 43.413,3.36 42.928,3.36 L42.022,3.36 C41.3225178,3.28068879 40.6156629,3.42045247 39.999,3.76 C39.6685607,4.06236242 39.4154791,4.43958431 39.261,4.86 C39.1143125,4.93655376 38.9335575,4.89147233 38.84,4.755 C39.0988333,3.98915298 39.3099054,3.20798593 39.472,2.416 C39.5749493,2.38430662 39.6850507,2.38430662 39.788,2.416 C39.893,2.922 40.42,2.901 41.179,2.901 L47.817,2.901 C48.702,2.901 48.85,2.859 49.102,2.458 C49.2018808,2.41403038 49.3180341,2.43029185 49.402,2.5 C49.2083518,3.28582713 49.1199121,4.09388965 49.139,4.903 C49.076,5.029 48.802,5.029 48.718,4.924 C48.7057711,4.50595322 48.5662189,4.1016007 48.318,3.765 C47.7392411,3.44379624 47.0771374,3.304406 46.418,3.365 L45.259,3.365 C44.774,3.365 44.774,3.386 44.774,3.892 L44.774,10.892 L44.761,10.883 Z" id="Path_337"></path>
                        <path d="M51.779,5.257 C51.779,3.592 51.737,3.318 50.704,3.234 L50.261,3.192 C50.156,3.129 50.198,2.855 50.303,2.792 C51.167,2.834 51.778,2.834 52.495,2.834 C53.195,2.834 53.781,2.813 54.666,2.792 C54.771,2.834 54.813,3.129 54.708,3.192 L54.265,3.234 C53.232,3.318 53.19,3.571 53.19,5.257 L53.19,10.862 C53.19,12.527 53.232,12.762 54.265,12.862 L54.708,12.904 C54.813,12.967 54.771,13.241 54.666,13.304 C53.802,13.262 53.191,13.262 52.495,13.262 C51.757,13.262 51.167,13.283 50.303,13.304 C50.1832995,13.203875 50.1647071,13.0268043 50.261,12.904 L50.704,12.862 C51.737,12.757 51.779,12.525 51.779,10.862 L51.779,5.257 Z" id="Path_338"></path>
                        <path d="M59.597,13.454 C58.6013394,13.4909416 57.6113339,13.2886197 56.71,12.864 C56.404822,12.1643368 56.2332044,11.4137643 56.204,10.651 C56.288,10.546 56.583,10.503 56.647,10.609 C57.0465016,12.0334189 58.368523,12.9997339 59.847,12.948 C61.406,12.948 62.165,12.084 62.165,11.136 C62.165,10.436 61.996,9.682 60.648,8.923 L58.878,7.954 C57.7778092,7.47472566 57.0158685,6.44610564 56.878,5.254 C56.878,3.754 58.248,2.554 60.671,2.554 C61.2525524,2.56712629 61.8313762,2.63780442 62.399,2.765 C62.6125461,2.81889772 62.8317654,2.84709743 63.052,2.849 C63.2696173,3.46530041 63.3834962,4.11343043 63.389,4.767 C63.305,4.851 63.01,4.915 62.925,4.809 C62.6565812,3.6604967 61.5669831,2.89790725 60.396,3.039 C58.584,3.039 58.183,4.072 58.183,4.788 C58.183,5.694 59.068,6.369 59.764,6.727 L61.239,7.507 C62.419,8.118 63.5570005,9.024 63.5570005,10.52 C63.558,12.274 62.02,13.454 59.597,13.454 Z" id="Path_339"></path>
                        <path d="M68.953,8.165 C68.131,8.165 68.11,8.207 68.11,8.671 L68.11,10.884 C68.11,12.528 68.194,12.76 69.143,12.844 L69.628,12.886 C69.733,12.949 69.691,13.223 69.586,13.286 C68.68,13.244 68.086,13.244 67.437,13.244 C66.699,13.244 66.13,13.286 65.477,13.286 C65.372,13.244 65.351,12.986 65.435,12.886 L65.73,12.844 C66.678,12.696 66.72,12.528 66.72,10.884 L66.72,5.235 C66.72,3.591 66.594,3.317 65.73,3.254 L65.288,3.212 C65.183,3.149 65.225,2.875 65.33,2.812 C66.152,2.833 66.742,2.854 67.458,2.854 C68.111,2.854 68.701,2.833 69.418,2.812 C69.523,2.854 69.544,3.149 69.46,3.212 L69.144,3.254 C68.154,3.338 68.132,3.591 68.132,5.235 L68.132,7.047 C68.132,7.532 68.174,7.553 68.975,7.553 L73.822,7.553 C74.644,7.553 74.665,7.532 74.665,7.047 L74.665,5.235 C74.665,3.591 74.623,3.335 73.632,3.254 L73.315,3.212 C73.21,3.149 73.252,2.875 73.357,2.812 C74.137,2.854 74.706,2.854 75.401,2.854 C76.054,2.854 76.644,2.833 77.401,2.812 C77.506,2.854 77.527,3.149 77.443,3.212 L77.085,3.254 C76.095,3.338 76.073,3.591 76.073,5.235 L76.073,10.904 C76.073,12.548 76.115,12.758 77.085,12.864 L77.485,12.906 C77.59,12.969 77.548,13.243 77.443,13.306 C76.621,13.264 76.052,13.264 75.399,13.264 C74.699,13.264 74.093,13.285 73.355,13.306 C73.25,13.264 73.229,13.006 73.313,12.906 L73.629,12.864 C74.662,12.716 74.662,12.548 74.662,10.904 L74.662,8.67 C74.662,8.206 74.62,8.164 73.819,8.164 L68.953,8.165 Z" id="Path_340"></path>
                        <path d="M2.361,16.763 C3.84657652,15.6625122 5.65785941,15.0911396 7.506,15.14 C8.64445709,15.1599626 9.77646292,15.3157309 10.878,15.604 C11.0459677,15.6681424 11.2254146,15.696745 11.405,15.688 C11.426,16.131 11.51,17.332 11.679,18.488 C11.5398734,18.6162693 11.3313707,18.6335758 11.173,18.53 C10.873,17.245 10.035,15.748 7.273,15.748 C4.365,15.748 1.878,17.581 1.878,21.522 C1.878,25.505 4.407,27.722 7.547,27.722 C9.32680025,27.7866098 10.9413128,26.6848661 11.53,25.004 C11.6979159,24.9123157 11.9067152,24.946978 12.036,25.088 C11.9004476,26.0080875 11.5931087,26.8944854 11.13,27.701 C10.8996118,27.7419274 10.6738433,27.8055713 10.456,27.891 C9.47595588,28.172554 8.46260976,28.3215458 7.443,28.334 C5.77208875,28.3938944 4.12131741,27.9537815 2.702,27.07 C0.973683826,25.8988689 -0.0428818536,23.9312495 0.002,21.844 C-0.0620186657,19.872051 0.813322304,17.9866727 2.361,16.763 Z" id="Path_341"></path>
                        <path d="M12.793,22.895 C12.8011994,21.3665926 13.4337615,19.9079488 14.5439489,18.8574346 C15.6541364,17.8069204 17.1454698,17.2558295 18.672,17.332 C22.486,17.332 24.404,19.966 24.404,22.727 C24.3999589,24.2250931 23.7870853,25.6571792 22.7061197,26.6943931 C21.6251542,27.7316071 20.1689822,28.284823 18.672,28.227 C15.006,28.248 12.793,25.74 12.793,22.895 Z M22.761,23.232 C22.761,20.64 21.561,17.837 18.399,17.837 C16.671,17.837 14.458,18.954 14.458,22.41 C14.458,24.749 15.638,27.763 18.904,27.763 C20.885,27.742 22.761,26.332 22.761,23.232 Z" id="Path_342"></path>
                        <path d="M43.054,21.543 C43.1098674,20.4447169 43.0033875,19.3442003 42.738,18.277 C42.5166736,18.0514482 42.2108194,17.9291791 41.895,17.94 L41.473,17.919 C41.4276211,17.863448 41.406503,17.7919734 41.4144037,17.7206793 C41.4223043,17.6493852 41.4585592,17.5842685 41.515,17.54 C42.147,17.561 42.758,17.582 43.415,17.582 C44.115,17.582 44.574,17.561 45.164,17.54 C45.2199739,17.5845894 45.2558733,17.6496447 45.2637555,17.7207725 C45.2716378,17.7919003 45.2508531,17.8632371 45.206,17.919 L44.806,17.94 C44.4791344,17.9164711 44.1623475,18.0588937 43.963,18.319 C43.7580745,19.3725639 43.6801855,20.446895 43.731,21.519 L43.731,23.289 C43.845252,24.6422723 43.4297349,25.9870563 42.572,27.04 C41.6991097,27.819929 40.5600184,28.2348274 39.39,28.199 C38.2831437,28.2662127 37.1855083,27.9621546 36.271,27.335 C35.386,26.635 34.964,25.502 34.964,23.626 L34.964,19.917 C34.964,18.273 34.922,18.017 33.974,17.936 L33.552,17.915 C33.447,17.852 33.489,17.578 33.594,17.536 C34.437,17.557 35.006,17.578 35.659,17.578 C36.333,17.578 36.902,17.557 37.703,17.536 C37.808,17.578 37.829,17.852 37.745,17.915 L37.345,17.936 C36.376,18.02 36.355,18.273 36.355,19.917 L36.355,23.31 C36.355,25.839 37.198,27.504 39.748,27.504 C42.171,27.504 43.078,25.713 43.078,23.31 L43.078,21.543 L43.054,21.543 Z" id="Path_343"></path>
                        <path d="M62.441,19.586 C62.441,18.406 62.378,18.111 61.535,18.048 L60.945,17.985 C60.882,17.922 60.84,17.606 60.966,17.606 C61.956,17.522 63.221,17.48 64.928,17.48 C65.9802532,17.4259174 67.0330114,17.5763599 68.028,17.923 C68.8702581,18.2143955 69.4309015,19.0128387 69.419,19.904 C69.419,21.042 68.639,21.632 67.543,22.075 C67.543,22.244 67.691,22.286 67.901,22.307 C69.2650694,22.4631547 70.3118202,23.5901309 70.367,24.962 C70.367,26.816 68.787,28.039 65.457,28.039 C64.93,28.039 64.024,27.997 63.244,27.997 C62.422,27.997 61.811,28.039 61.116,28.039 C60.9962995,27.938875 60.9777071,27.7618043 61.074,27.639 L61.411,27.597 C62.38,27.45 62.422,27.281 62.422,25.616 L62.422,19.589 L62.441,19.586 Z M63.958,21.693 C63.958,22.136 63.979,22.178 64.906,22.136 C66.781,22.073 67.793,21.588 67.793,20.092 C67.793,18.533 66.444,17.943 65.053,17.943 C64.7681026,17.9305421 64.4831367,17.9660361 64.21,18.048 C64.02,18.09 63.957,18.174 63.957,18.469 L63.958,21.693 Z M63.958,25.381 C63.8951395,25.9827739 64.0280528,26.5887742 64.337,27.109 C64.7448427,27.4415832 65.2669978,27.6006718 65.791,27.552 C67.435,27.552 68.678,26.92 68.678,25.318 C68.678,24.054 67.94,22.6 65.011,22.6 C64.021,22.6 63.936,22.705 63.936,23.021 L63.936,25.379 L63.958,25.381 Z" id="Path_344"></path>
                        <g id="Group_7" transform="translate(21.920000, 2.686000)">
                            <path d="M10.472,10.221 L10.029,10.179 C9.94994939,10.1771863 9.87166934,10.1630149 9.797,10.137 C9.165,10.032 8.912,9.463 8.597,8.937 L7.079,6.3 C6.826,5.857 6.531,5.267 5.941,5.183 C7.479,4.993 8.891,4.108 8.891,2.57 C8.891,0.8 7.142,-0.001 5.372,-0.001 C4.318,-0.001 3.349,0.02 2.253,0.02 C1.663,0.02 0.946,-0.001 0.353,-0.001 C0.016,-0.001 0.016,0.062 0.016,0.252 C0.016,0.526 0.121,0.442 0.48,0.463 C1.744,0.526 1.702,0.779 1.702,1.854 L1.702,8.745 C1.702,9.735 1.786,10.03 0.754,10.115 C0.754,10.115 0.585,10.136 0.501,10.136 L0.058,10.178 C-0.0326841386,10.3023655 -0.0145383196,10.4751828 0.1,10.578 C0.332,10.578 0.753,10.557 0.753,10.557 C1.322,10.536 1.891,10.494 2.481,10.494 C3.05,10.494 3.619,10.536 4.167,10.557 L4.167,10.557 C4.378,10.557 4.588,10.578 4.82,10.578 C4.93970046,10.477875 4.95829288,10.3008043 4.862,10.178 L4.419,10.136 C4.335,10.136 4.166,10.115 4.166,10.115 C3.112,10.052 3.176,9.757 3.176,8.745 L3.176,6.174 C3.176,6.026 3.155,5.626 3.26,5.5 C3.344,5.395 3.513,5.416 3.66,5.416 C5.072,5.416 5.051,5.542 5.725,6.723 L7.558,10.01 C7.706,10.263 7.811,10.579 8.19,10.579 L9.771,10.579 C9.961,10.579 10.193,10.6 10.424,10.6 C10.556,10.558 10.577,10.326 10.472,10.221 Z M4.108,5.058 C3.792,5.058 3.16,5.184 3.16,4.758 L3.16,1.728 C3.16,0.548 3.202,0.379 4.614,0.379 C6.279,0.379 7.29,1.222 7.29,2.779 C7.31603715,3.46476149 6.99023148,4.11637283 6.426,4.507 C5.72815398,4.92501486 4.91829054,5.11744037 4.107,5.058 L4.108,5.058 Z" id="Path_345"></path>
                        </g>
                        <g id="Group_9" transform="translate(24.723000, 17.437000)">
                            <path d="M1.642,2.571 C1.642,0.927 1.6,0.671 0.525,0.59 L0.082,0.548 C-0.023,0.485 0.019,0.211 0.124,0.148 C1.093,0.19 1.683,0.19 2.379,0.19 C3.053,0.19 3.643,0.169 4.507,0.148 C4.612,0.19 4.655,0.485 4.549,0.548 L4.128,0.59 C3.116,0.674 3.074,0.927 3.074,2.571 L3.074,8.048 C3.074,9.038 3.116,9.439 3.432,9.755 C3.622,9.924 3.959,10.113 5.332,10.113 C6.807,10.113 7.165,10.05 7.439,9.902 C7.96121993,9.50342136 8.35654184,8.96185119 8.577,8.343 C8.682,8.259 9.02,8.322 9.02,8.427 C8.84820946,9.18737447 8.6009851,9.92871255 8.282,10.64 C7.397,10.619 5.753,10.598 3.962,10.598 L2.362,10.598 C1.624,10.598 1.077,10.619 0.107,10.64 C-0.0127004637,10.539875 -0.0312928807,10.3628043 0.065,10.24 L0.592,10.198 C1.604,10.114 1.625,9.882 1.625,8.238 L1.625,2.569 L1.642,2.571 Z" id="Path_346"></path>
                            <path d="M48.024,2.592 C48.024,0.927 47.982,0.653 46.991,0.569 L46.569,0.527 C46.464,0.464 46.506,0.19 46.611,0.127 C47.454,0.169 48.044,0.169 48.76,0.169 C49.434,0.169 50.024,0.148 50.867,0.127 C50.972,0.169 50.993,0.464 50.909,0.527 L50.488,0.569 C49.476,0.653 49.455,0.906 49.455,2.592 L49.455,8.197 C49.455,9.862 49.497,10.097 50.488,10.197 L50.909,10.239 C51.014,10.302 50.972,10.576 50.867,10.639 C50.024,10.618 49.434,10.597 48.76,10.597 C48.044,10.597 47.475,10.618 46.611,10.639 C46.506,10.597 46.485,10.339 46.569,10.239 L46.991,10.197 C48.002,10.092 48.024,9.86 48.024,8.197 L48.024,2.592 Z" id="Path_347"></path>
                            <path d="M34.453,10.2 C34.369,10.2 34.2,10.179 34.2,10.179 C34.0254808,10.1838204 33.8570171,10.1148374 33.736,9.989 C33.5630956,9.62854915 33.4902216,9.22826022 33.525,8.83 L33.525,1.918 C33.525,1.618 33.462,0.97 33.672,0.738 C33.8277809,0.617884067 34.0249298,0.564639468 34.22,0.59 L34.22,0.59 C34.2979462,0.594502801 34.3761293,0.587425882 34.452,0.569 L34.895,0.548 C35,0.485 34.958,0.211 34.853,0.148 C34.621,0.148 34.41,0.148 34.2,0.169 L32.346,0.169 C32.135,0.169 31.967,0.169 31.84,0.38 L28.047,8.261 L24.696,0.654 C24.591,0.38 24.57,0.169 24.211,0.169 L22.311,0.169 C22.1,0.169 21.89,0.169 21.658,0.148 C21.553,0.19 21.51,0.485 21.616,0.548 L22.059,0.569 C22.143,0.569 22.312,0.59 22.312,0.59 C23.029,0.632 23.092,0.801 23.012,1.559 L22.443,8.959 C22.401,9.697 22.359,10.097 21.579,10.159 C21.579,10.159 21.41,10.18 21.326,10.18 L20.883,10.222 C20.7923159,10.3463655 20.8104617,10.5191828 20.925,10.622 C21.157,10.622 21.557,10.601 21.557,10.601 C21.957,10.58 22.357,10.538 22.757,10.538 C23.2,10.538 23.621,10.58 24.064,10.601 L24.064,10.601 C24.275,10.601 24.485,10.622 24.717,10.622 C24.8367005,10.521875 24.8552929,10.3448043 24.759,10.222 L24.316,10.18 C24.231335,10.1778339 24.1468635,10.1708224 24.063,10.159 C22.946,10.075 22.963,9.295 23.03,8.326 L23.557,1.456 L23.683,1.456 L27.308,9.927 C27.35,10.053 27.392,10.243 27.582,10.243 C27.751,10.243 27.793,10.053 27.856,9.943 L31.923,1.261 L32.049,1.261 L32.049,8.826 C32.049,9.126 32.091,9.753 31.775,9.985 C31.5540841,10.0874462 31.3173958,10.1516902 31.075,10.175 C30.9991269,10.1934113 30.9209459,10.200488 30.843,10.196 L30.4,10.238 C30.3093159,10.3623655 30.3274617,10.5351828 30.442,10.638 C30.674,10.638 31.074,10.617 31.074,10.617 C31.664,10.596 32.274,10.554 32.865,10.554 C33.308,10.554 34.15,10.596 34.15,10.596 C34.361,10.596 34.571,10.617 34.824,10.638 C34.9437005,10.537875 34.9622929,10.3608043 34.866,10.238 L34.453,10.2 Z" id="Path_348"></path>
                            <g id="Group_8" transform="translate(51.904000, 0.000000)">
                                <path d="M10.935,10.242 L10.872,10.2 C10.7929477,10.1982027 10.7146651,10.1840309 10.64,10.158 C9.966,10.01 9.692,9.189 9.44,8.599 L5.94,0.317 C5.898,0.212 5.835,0.001 5.687,0.001 C5.497,0.001 5.434,0.233 5.387,0.359 L2.036,8.641 C1.86969254,9.10048889 1.65055636,9.53909683 1.383,9.948 C1.20665149,10.0980736 0.982561608,10.1803345 0.751,10.18 C0.751,10.18 0.561,10.201 0.477,10.201 L0.056,10.243 C-0.0346841386,10.3673655 -0.0165383196,10.5401828 0.098,10.643 C0.33,10.643 0.751,10.622 0.751,10.622 C1.215,10.622 1.657,10.559 2.121,10.559 C2.5,10.559 2.901,10.601 3.28,10.622 C3.28,10.622 3.702,10.643 3.933,10.643 C4.05220507,10.5426116 4.07075359,10.365959 3.975,10.243 L3.532,10.201 C3.45434936,10.1981133 3.37690689,10.1911034 3.3,10.18 C2.9,10.138 2.394,10.054 2.394,9.611 C2.42330926,9.29626971 2.50900786,8.98938065 2.647,8.705 L3.174,7.462 C3.427,6.872 3.321,6.809 4.017,6.809 L6.377,6.809 C7.199,6.809 7.094,6.809 7.452,7.652 L8,8.916 C8.12509845,9.16801823 8.21044174,9.43787844 8.253,9.716 C8.253,10.137 7.81,10.159 7.368,10.201 C7.28413604,10.2128181 7.19966475,10.2198295 7.115,10.222 L6.693,10.243 C6.60231586,10.3673655 6.62046168,10.5401828 6.735,10.643 C6.967,10.643 7.388,10.622 7.388,10.622 C7.873,10.601 8.378,10.559 8.863,10.559 C9.474,10.559 10.085,10.601 10.675,10.622 L10.675,10.622 C10.865,10.622 10.696,10.643 10.928,10.643 C10.9991098,10.579 11.041,10.326 10.935,10.242 Z M6.341,6.342 L4.297,6.342 C4.234,6.342 3.665,6.405 3.665,6.237 C3.67636726,6.17086926 3.69760422,6.10682128 3.728,6.047 L4.95,3.012 C4.992,2.928 5.119,2.506 5.25,2.506 C5.355,2.506 5.503,2.949 5.524,3.012 L6.724,5.857 C6.724,5.899 6.85,6.157 6.85,6.215 C6.847,6.385 6.447,6.343 6.341,6.343 L6.341,6.342 Z" id="Path_349"></path>
                            </g>
                        </g>
                    </g>
                    <path d="M8.979,34.043 C18.399,34.043 31.422,39.353 40.879,39.353 C47.622,39.353 54.218,37.562 57.948,34.907 C58.2093432,33.3256321 58.3431076,31.7258102 58.3485022,30.123 C58.4087204,19.8436152 52.9595691,10.3189843 44.0673428,5.1616836 C35.1751165,0.00438292434 24.2018835,0.00438292434 15.3096572,5.1616836 C6.41743085,10.3189843 0.968279587,19.8436152 1.02849779,30.123 C1.02421283,31.7121726 1.15973897,33.2986651 1.434,34.864 C3.92021251,34.3706134 6.44485619,34.0958974 8.979,34.043 Z" id="Path_350" fill="#FFFFFF"></path>
                    <g id="Group_15" transform="translate(1.308000, 0.148000)" fill="#FDB913">
                        <polygon id="Path_351" points="46.909 23.337 48.026 23.801 50.555 22.052"></polygon>
                        <path d="M4.657,21.378 L1.686,20.324 L1.834,19.966 L5.185,21.083 L5.206,21.083 L5.649,20.83 L5.818,20.725 L2.149,19.165 L2.297,18.786 L10.497,22.073 L10.771,21.968 L2.655,18.027 L2.845,17.648 L11.422,21.648 L11.548,21.585 L3.224,16.865 L3.393,16.507 L15.4,23.043 C15.505,22.853 15.7,22.537 15.8,22.343 C12.9455152,19.6752894 9.94880324,17.1639533 6.823,14.82 C10.0917243,16.9570013 13.4755004,18.9126209 16.959,20.678 C17.149,20.446 17.296,20.257 17.486,20.046 L7.249,11.031 L7.523,10.757 L15.805,17.817 L8.134,10.125 L8.434,9.825 L17.034,18.149 L9.019,9.261 L9.335,8.987 L16.735,16.911 L9.968,8.4 L10.268,8.126 L18.929,18.663 C19.161,18.473 19.329,18.326 19.582,18.136 C17.9451157,14.6088547 16.1150049,11.1746427 14.1,7.849 C16.3218409,11.0379375 18.7136304,14.1050361 21.265,17.037 C21.518,16.889 21.771,16.763 22.024,16.637 L21.982,16.616 L15.889,4.5 L16.247,4.331 L21.284,13.962 L17.048,3.992 L17.427,3.823 L22.3,14.761 L18.186,3.508 L18.565,3.36 L22.465,13.496 L19.409,3.065 L19.788,2.939 L23.834,15.878 L23.834,15.92 L23.834,15.92 L24.656,15.667 C24.4512716,11.8058814 24.0433735,7.95822134 23.434,4.14 C24.2921415,7.91084595 25.3543713,11.6323223 26.616,15.288 C26.89,15.246 27.185,15.225 27.48,15.204 L27.48,15.183 L27.522,15.183 L27.501,15.162 L26.363,1.632 L26.763,1.611 L27.817,12.443 L27.627,1.59 L28.048,1.569 L28.469,13.539 L28.892,1.569 L29.313,1.59 L29.123,12.443 L30.177,1.611 L30.577,1.632 L29.477,15.14 L29.456,15.161 L29.477,15.161 C29.751,15.182 30.046,15.203 30.32,15.245 C31.5846666,11.5973006 32.6485934,7.88307103 33.507,4.119 C32.8967854,7.93006532 32.4888805,11.7707798 32.285,15.625 C32.5645889,15.6899714 32.8392656,15.7745131 33.107,15.878 L37.153,2.978 L37.532,3.104 L34.455,13.539 L38.353,3.4 L38.732,3.548 L34.645,14.8 L39.512,3.866 L39.891,4.035 L35.591,14.024 L40.628,4.393 L40.986,4.562 L34.94,16.636 L34.94,16.636 C35.193,16.762 35.425,16.889 35.678,17.015 C38.2152127,14.0973593 40.5926883,11.044563 42.8,7.87 C40.7950994,11.1742684 38.9730269,14.586064 37.342,18.09 C37.5758598,18.2610598 37.8008202,18.4439652 38.016,18.638 L46.572,8.207 L46.872,8.481 L40.1,16.995 L47.5,9.071 L47.816,9.345 L39.808,18.238 L48.408,9.914 L48.708,10.214 L41.03,17.88 L49.312,10.82 L49.586,11.094 L39.449,20.008 L39.449,20.008 C39.618,20.198 39.786,20.408 39.955,20.619 C43.4107207,18.8667571 46.766546,16.9241042 50.007,14.8 C46.9064694,17.1280823 43.9309961,19.6182137 41.093,22.26 C41.219,22.471 41.409,22.829 41.536,23.04 L53.379,16.592 L53.548,16.95 L44.086,22.324 L53.927,17.751 L54.117,18.13 L44.949,22.6 L45.118,22.663 L54.432,18.891 L54.58,19.27 L45.919,22.958 L46.088,23.021 L51.861,21.1 L52.725,20.489 L53.025,20.7 L54.925,20.068 L55.073,20.426 L53.421,21 L55.8,22.811 L56.559,23.232 C53.4013913,10.058636 41.5444254,0.826302878 27.9989498,0.993941939 C14.4534742,1.161581 2.82862389,10.6845255 -0.002,23.932 C0.04,23.911 0.061,23.89 0.103,23.89 L0.461,23.742 L0.672,23.637 L4.657,21.378 Z" id="Path_352"></path>
                    </g>
                    <path d="M1.14,35.456 C3.73127037,34.9489789 6.3604673,34.6599679 9,34.592 C18.42,34.592 31.443,39.902 40.9,39.902 C47.833,39.902 54.6,38.002 58.285,35.224 C58.5824597,33.5544852 58.7307115,31.861805 58.7280365,30.166 C58.7307061,27.8803182 58.4621617,25.6023906 57.928,23.38 L53.992,21.189 L49.377,24.434 L46.258,23.234 C45.204,23.761 38.714,28.102 38.714,28.102 L36.227,26.289 L33.555,25.762 L29.994,23.17 L25.906,25.97 C25.906,25.97 21.333,28.625 21.186,28.625 C21.039,28.625 15.686,24.389 15.686,24.389 L13.178,21.797 C12.757,22.071 11.071,22.83 11.071,22.83 L10.987,22.851 L9.355,22.348 L7.377,21.294 L1.414,24.034 C1.372,24.055 1.351,24.076 1.309,24.076 C0.49874415,27.8206131 0.441296552,31.688978 1.14,35.456 L1.14,35.456 Z" id="Path_353" fill="#004B8D"></path>
                </g>
            </g>
        </g>
    </g>
</svg>