<?xml version="1.0" encoding="UTF-8"?>
<svg width="40px" height="28px" viewBox="0 0 40 28" version="1.1" xmlns="http://www.w3.org/2000/svg" xmlns:xlink="http://www.w3.org/1999/xlink">
    <title>Logo</title>
    <g id="Page-1" stroke="none" stroke-width="1" fill="none" fill-rule="evenodd">
        <g id="2.0.1.0---Confirmation---Passed-All----Mobile" transform="translate(-56.000000, -16.000000)" fill-rule="nonzero">
            <g id="Header_Traveller_Support" transform="translate(56.000000, 10.000000)">
                <g id="Logo" transform="translate(0.000000, 6.666667)">
                    <path d="M5.986,22.6953333 C12.266,22.6953333 20.948,26.2353333 27.2526667,26.2353333 C31.748,26.2353333 36.1453333,25.0413333 38.632,23.2713333 C38.8062288,22.2170881 38.8954051,21.1505402 38.8990015,20.082 C38.9391469,13.2290768 35.3063794,6.87932285 29.3782286,3.4411224 C23.4500777,0.00292194956 16.134589,0.00292194956 10.2064381,3.4411224 C4.27828723,6.87932285 0.645519725,13.2290768 0.685665191,20.082 C0.68280855,21.1414484 0.773159313,22.1991101 0.956,23.2426667 C2.61347501,22.9137423 4.29657079,22.7305982 5.986,22.6953333 Z" id="Path_350" fill="#FFFFFF"></path>
                    <g id="Group_15" transform="translate(0.872000, 0.098667)" fill="#FDB913">
                        <polygon id="Path_351" points="31.2726667 15.558 32.0173333 15.8673333 33.7033333 14.7013333"></polygon>
                        <path d="M3.10466667,14.252 L1.124,13.5493333 L1.22266667,13.3106667 L3.45666667,14.0553333 L3.47066667,14.0553333 L3.766,13.8866667 L3.87866667,13.8166667 L1.43266667,12.7766667 L1.53133333,12.524 L6.998,14.7153333 L7.18066667,14.6453333 L1.77,12.018 L1.89666667,11.7653333 L7.61466667,14.432 L7.69866667,14.39 L2.14933333,11.2433333 L2.262,11.0046667 L10.2666667,15.362 C10.3366667,15.2353333 10.4666667,15.0246667 10.5333333,14.8953333 C8.63034348,13.1168596 6.63253549,11.4426356 4.54866667,9.88 C6.72781622,11.3046675 8.98366691,12.6084139 11.306,13.7853333 C11.4326667,13.6306667 11.5306667,13.5046667 11.6573333,13.364 L4.83266667,7.354 L5.01533333,7.17133333 L10.5366667,11.878 L5.42266667,6.75 L5.62266667,6.55 L11.356,12.0993333 L6.01266667,6.174 L6.22333333,5.99133333 L11.1566667,11.274 L6.64533333,5.6 L6.84533333,5.41733333 L12.6193333,12.442 C12.774,12.3153333 12.886,12.2173333 13.0546667,12.0906667 C11.9634105,9.73923647 10.7433366,7.44976182 9.4,5.23266667 C10.8812273,7.35862497 12.4757536,9.4033574 14.1766667,11.358 C14.3453333,11.2593333 14.514,11.1753333 14.6826667,11.0913333 L14.6546667,11.0773333 L10.5926667,3 L10.8313333,2.88733333 L14.1893333,9.308 L11.3653333,2.66133333 L11.618,2.54866667 L14.8666667,9.84066667 L12.124,2.33866667 L12.3766667,2.24 L14.9766667,8.99733333 L12.9393333,2.04333333 L13.192,1.95933333 L15.8893333,10.5853333 L15.8893333,10.6133333 L15.8893333,10.6133333 L16.4373333,10.4446667 C16.3008477,7.87058762 16.0289157,5.30548089 15.6226667,2.76 C16.194761,5.2738973 16.9029142,7.75488155 17.744,10.192 C17.9266667,10.164 18.1233333,10.15 18.32,10.136 L18.32,10.122 L18.348,10.122 L18.334,10.108 L17.5753333,1.088 L17.842,1.074 L18.5446667,8.29533333 L18.418,1.06 L18.6986667,1.046 L18.9793333,9.026 L19.2613333,1.046 L19.542,1.06 L19.4153333,8.29533333 L20.118,1.074 L20.3846667,1.088 L19.6513333,10.0933333 L19.6373333,10.1073333 L19.6513333,10.1073333 C19.834,10.1213333 20.0306667,10.1353333 20.2133333,10.1633333 C21.0564444,7.73153372 21.7657289,5.25538069 22.338,2.746 C21.9311902,5.28671021 21.6592537,7.84718652 21.5233333,10.4166667 C21.7097259,10.459981 21.8928438,10.516342 22.0713333,10.5853333 L24.7686667,1.98533333 L25.0213333,2.06933333 L22.97,9.026 L25.5686667,2.26666667 L25.8213333,2.36533333 L23.0966667,9.86666667 L26.3413333,2.57733333 L26.594,2.69 L23.7273333,9.34933333 L27.0853333,2.92866667 L27.324,3.04133333 L23.2933333,11.0906667 L23.2933333,11.0906667 C23.462,11.1746667 23.6166667,11.2593333 23.7853333,11.3433333 C25.4768084,9.3982395 27.0617922,7.36304203 28.5333333,5.24666667 C27.1967329,7.44951226 25.9820179,9.72404268 24.8946667,12.06 C25.0505732,12.1740398 25.2005468,12.2959768 25.344,12.4253333 L31.048,5.47133333 L31.248,5.654 L26.7333333,11.33 L31.6666667,6.04733333 L31.8773333,6.23 L26.5386667,12.1586667 L32.272,6.60933333 L32.472,6.80933333 L27.3533333,11.92 L32.8746667,7.21333333 L33.0573333,7.396 L26.2993333,13.3386667 L26.2993333,13.3386667 C26.412,13.4653333 26.524,13.6053333 26.6366667,13.746 C28.9404804,12.5778381 31.1776974,11.2827361 33.338,9.86666667 C31.2709796,11.4187215 29.2873308,13.0788091 27.3953333,14.84 C27.4793333,14.9806667 27.606,15.2193333 27.6906667,15.36 L35.586,11.0613333 L35.6986667,11.3 L29.3906667,14.8826667 L35.9513333,11.834 L36.078,12.0866667 L29.966,15.0666667 L30.0786667,15.1086667 L36.288,12.594 L36.3866667,12.8466667 L30.6126667,15.3053333 L30.7253333,15.3473333 L34.574,14.0666667 L35.15,13.6593333 L35.35,13.8 L36.6166667,13.3786667 L36.7153333,13.6173333 L35.614,14 L37.2,15.2073333 L37.706,15.488 C35.6009275,6.70575731 27.6962836,0.550868585 18.6659665,0.662627959 C9.63564944,0.774387333 1.88574926,7.12301699 -0.00133333333,15.9546667 C0.0266666667,15.9406667 0.0406666667,15.9266667 0.0686666667,15.9266667 L0.307333333,15.828 L0.448,15.758 L3.10466667,14.252 Z" id="Path_352"></path>
                    </g>
                    <path d="M0.76,23.6373333 C2.48751358,23.2993193 4.24031153,23.1066453 6,23.0613333 C12.28,23.0613333 20.962,26.6013333 27.2666667,26.6013333 C31.8886667,26.6013333 36.4,25.3346667 38.8566667,23.4826667 C39.0549732,22.3696568 39.1538077,21.2412033 39.1520244,20.1106667 C39.1538041,18.5868788 38.9747745,17.0682604 38.6186667,15.5866667 L35.9946667,14.126 L32.918,16.2893333 L30.8386667,15.4893333 C30.136,15.8406667 25.8093333,18.7346667 25.8093333,18.7346667 L24.1513333,17.526 L22.37,17.1746667 L19.996,15.4466667 L17.2706667,17.3133333 C17.2706667,17.3133333 14.222,19.0833333 14.124,19.0833333 C14.026,19.0833333 10.4573333,16.2593333 10.4573333,16.2593333 L8.78533333,14.5313333 C8.50466667,14.714 7.38066667,15.22 7.38066667,15.22 L7.32466667,15.234 L6.23666667,14.8986667 L4.918,14.196 L0.942666667,16.0226667 C0.914666667,16.0366667 0.900666667,16.0506667 0.872666667,16.0506667 C0.3324961,18.5470754 0.294197701,21.1259853 0.76,23.6373333 L0.76,23.6373333 Z" id="Path_353" fill="#004B8D"></path>
                </g>
            </g>
        </g>
    </g>
</svg>