<?xml version="1.0" encoding="UTF-8"?>
<svg width="595px" height="40px" viewBox="0 0 595 40" version="1.1" xmlns="http://www.w3.org/2000/svg" xmlns:xlink="http://www.w3.org/1999/xlink">
    <!-- Generator: Sketch 64 (93537) - https://sketch.com -->
    <title>TFW-logo-desktop</title>
    <desc>Created with Sketch.</desc>
    <defs>
        <path d="M2.55859375,6.3984375 C3.03168403,6.3984375 3.45486111,6.32790799 3.828125,6.18684896 L3.828125,6.18684896 L3.828125,5.51953125 C3.62413194,5.58246528 3.42773438,5.63400608 3.23893229,5.67415365 C3.05013021,5.71430122 2.85481771,5.734375 2.65299479,5.734375 C2.18641493,5.734375 1.82996962,5.58463542 1.58365885,5.28515625 C1.33734809,4.98567708 1.21419271,4.54405382 1.21419271,3.96028646 C1.21419271,3.40256076 1.3422309,2.96527778 1.59830729,2.6484375 C1.85438368,2.33159722 2.20594618,2.17317708 2.65299479,2.17317708 C2.85047743,2.17317708 3.03873698,2.20193142 3.21777344,2.2594401 C3.3968099,2.31694878 3.56662326,2.38368056 3.72721354,2.45963542 L3.72721354,2.45963542 L4.00716146,1.81184896 C3.59483507,1.6078559 3.14561632,1.50585938 2.65950521,1.50585938 C2.19726562,1.50585938 1.79470486,1.60460069 1.45182292,1.80208333 C1.10894097,1.99956597 0.846896701,2.28385417 0.665690104,2.65494792 C0.484483507,3.02604167 0.393880208,3.45898438 0.393880208,3.95377604 C0.393880208,4.73936632 0.580512153,5.34320747 0.953776042,5.76529948 C1.32703993,6.18739149 1.86197917,6.3984375 2.55859375,6.3984375 Z M7.76130448,6.3984375 C8.47093989,6.3984375 9.0194425,6.18359375 9.40681229,5.75390625 C9.79418208,5.32421875 9.98786698,4.72200521 9.98786698,3.94726562 C9.98786698,3.1703559 9.79472462,2.56814236 9.40843989,2.140625 C9.02215517,1.71310764 8.47528017,1.49934896 7.76781489,1.49934896 C7.04949892,1.49934896 6.49665604,1.70985243 6.10928625,2.13085938 C5.72191646,2.55186632 5.52823156,3.15516493 5.52823156,3.94075521 C5.52823156,4.72634549 5.72083139,5.33235677 6.10603104,5.75878906 C6.49123069,6.18522135 7.04298851,6.3984375 7.76130448,6.3984375 Z M7.76130448,5.734375 C7.29689476,5.734375 6.94641733,5.58300781 6.70987219,5.28027344 C6.47332705,4.97753906 6.35505448,4.53320312 6.35505448,3.94726562 C6.35505448,3.36349826 6.47386958,2.92078993 6.71149979,2.61914062 C6.94913,2.31749132 7.30123503,2.16666667 7.76781489,2.16666667 C8.23005448,2.16666667 8.57781923,2.31749132 8.81110917,2.61914062 C9.0443991,2.92078993 9.16104406,3.36349826 9.16104406,3.94726562 C9.16104406,4.53971354 9.04331403,4.98567708 8.80785396,5.28515625 C8.57239389,5.58463542 8.22354406,5.734375 7.76130448,5.734375 Z M13.7713069,6.33333333 L15.4379735,1.57421875 L14.6306819,1.57421875 L13.6378433,4.52018229 C13.600951,4.62434896 13.5532079,4.78493924 13.4946142,5.00195312 C13.4360204,5.21896701 13.3926176,5.40993924 13.3644058,5.57486979 C13.3470447,5.46636285 13.3090673,5.30088976 13.2504735,5.07845052 C13.1918798,4.85601128 13.1365412,4.67426215 13.0844579,4.53320312 L13.0844579,4.53320312 L12.0916194,1.57421875 L11.2908381,1.57421875 L12.9509944,6.33333333 L13.7713069,6.33333333 Z M17.7533145,6.33333333 L17.7533145,1.57421875 L16.9753197,1.57421875 L16.9753197,6.33333333 L17.7533145,6.33333333 Z M21.250296,6.33333333 C22.0706085,6.33333333 22.6988637,6.12554253 23.1350617,5.70996094 C23.5712596,5.29437934 23.7893585,4.6937934 23.7893585,3.90820312 C23.7893585,3.16818576 23.5788551,2.59418403 23.1578481,2.18619792 C22.7368412,1.77821181 22.1476485,1.57421875 21.39027,1.57421875 L21.39027,1.57421875 L19.9189158,1.57421875 L19.9189158,6.33333333 L21.250296,6.33333333 Z M21.250296,5.67903646 L20.6969106,5.67903646 L20.6969106,2.22526042 L21.3707387,2.22526042 C22.4362769,2.22526042 22.969046,2.79492188 22.969046,3.93424479 C22.969046,5.09743924 22.3961294,5.67903646 21.250296,5.67903646 L21.250296,5.67903646 Z M26.9998818,4.87174479 L26.9998818,4.22070312 L25.3267047,4.22070312 L25.3267047,4.87174479 L26.9998818,4.87174479 Z M30.6856654,6.33333333 L30.6856654,1.57421875 L30.0476446,1.57421875 L28.647905,2.67447917 L29.0320196,3.15950521 C29.4465161,2.82313368 29.6901142,2.6234809 29.7628138,2.56054688 C29.8355135,2.49761285 29.8968199,2.44010417 29.9467331,2.38802083 C29.929372,2.60286458 29.9206915,2.89366319 29.9206915,3.26041667 L29.9206915,3.26041667 L29.9206915,6.33333333 L30.6856654,6.33333333 Z M34.1012668,6.3984375 C34.8608154,6.3984375 35.4293918,6.16731771 35.8069959,5.70507812 C36.1846001,5.24283854 36.3734022,4.54296875 36.3734022,3.60546875 C36.3734022,3.16710069 36.3050428,2.79112413 36.1683241,2.47753906 C36.0316053,2.16395399 35.8373779,1.92469618 35.5856418,1.75976562 C35.3339057,1.59483507 35.0387668,1.51236979 34.7002251,1.51236979 C34.2184543,1.51236979 33.8381374,1.6593967 33.5592746,1.95345052 C33.2804117,2.24750434 33.1409803,2.64301215 33.1409803,3.13997396 C33.1409803,3.59787326 33.261423,3.95811632 33.5023084,4.22070312 C33.7431938,4.48328993 34.07414,4.61458333 34.495147,4.61458333 C34.7382025,4.61458333 34.9503336,4.57118056 35.1315402,4.484375 C35.3127468,4.39756944 35.4673692,4.25651042 35.5954074,4.06119792 L35.5954074,4.06119792 L35.6344699,4.06119792 C35.6105984,4.65581597 35.4717095,5.09201389 35.2178032,5.36979167 C34.963897,5.64756944 34.5786973,5.78645833 34.0622043,5.78645833 C33.8668918,5.78645833 33.6726643,5.7593316 33.479522,5.70507812 L33.479522,5.70507812 L33.479522,6.34635417 C33.60539,6.38107639 33.8126383,6.3984375 34.1012668,6.3984375 Z M34.6872043,4.00585938 C34.4202772,4.00585938 34.2211669,3.92827691 34.0898735,3.77311198 C33.9585801,3.61794705 33.8929334,3.4047309 33.8929334,3.13346354 C33.8929334,2.82096354 33.9634629,2.57845052 34.104522,2.40592448 C34.245581,2.23339844 34.448489,2.14713542 34.7132459,2.14713542 C34.886857,2.14713542 35.0409369,2.19596354 35.1754855,2.29361979 C35.3100341,2.39127604 35.4147433,2.52419705 35.4896131,2.69238281 C35.5644829,2.86056858 35.6019178,3.04123264 35.6019178,3.234375 C35.6019178,3.44053819 35.5140272,3.62065972 35.3382459,3.77473958 C35.1624647,3.92881944 34.9454508,4.00585938 34.6872043,4.00585938 Z M41.6225736,6.33333333 L41.6225736,4.43229167 L42.3908028,4.43229167 L43.5301257,6.33333333 L44.4155424,6.33333333 L43.0711413,4.22721354 C43.6874608,3.97547743 43.9956205,3.55338542 43.9956205,2.9609375 C43.9956205,2.49652778 43.8480511,2.14930556 43.5529122,1.91927083 C43.2577733,1.68923611 42.8031292,1.57421875 42.1889799,1.57421875 L42.1889799,1.57421875 L40.8445788,1.57421875 L40.8445788,6.33333333 L41.6225736,6.33333333 Z M42.1629382,3.78776042 L41.6225736,3.78776042 L41.6225736,2.23177083 L42.1368966,2.23177083 C42.4906292,2.23177083 42.7553861,2.29036458 42.9311674,2.40755208 C43.1069486,2.52473958 43.1948393,2.71788194 43.1948393,2.98697917 C43.1948393,3.25173611 43.1134591,3.45138889 42.9506986,3.5859375 C42.7879382,3.72048611 42.5253514,3.78776042 42.1629382,3.78776042 L42.1629382,3.78776042 Z M48.7067948,6.33333333 L48.7067948,5.67252604 L46.7927323,5.67252604 L46.7927323,4.17838542 L48.5863521,4.17838542 L48.5863521,3.52734375 L46.7927323,3.52734375 L46.7927323,2.23177083 L48.7067948,2.23177083 L48.7067948,1.57421875 L46.0147375,1.57421875 L46.0147375,6.33333333 L48.7067948,6.33333333 Z M51.6634118,6.3984375 C52.2016062,6.3984375 52.6236982,6.27799479 52.9296878,6.03710938 C53.2356774,5.79622396 53.3886722,5.46419271 53.3886722,5.04101562 C53.3886722,4.82617188 53.3506947,4.63953993 53.2747399,4.48111979 C53.198785,4.32269965 53.0794274,4.18055556 52.916667,4.0546875 C52.7539065,3.92881944 52.4978302,3.79318576 52.1484378,3.64778646 C51.8381079,3.51974826 51.6232642,3.41666667 51.5039065,3.33854167 C51.3845489,3.26041667 51.2988284,3.17740885 51.2467451,3.08951823 C51.1946618,3.0016276 51.1686201,2.89583333 51.1686201,2.77213542 C51.1686201,2.59201389 51.2337243,2.44715712 51.3639326,2.3375651 C51.4941409,2.22797309 51.6851131,2.17317708 51.9368493,2.17317708 C52.2688805,2.17317708 52.6464847,2.26215278 53.0696618,2.44010417 L53.0696618,2.44010417 L53.3170576,1.80533854 C52.8656687,1.60568576 52.4121097,1.50585938 51.9563805,1.50585938 C51.4811201,1.50585938 51.1024309,1.61979167 50.8203128,1.84765625 C50.5381947,2.07552083 50.3971357,2.38802083 50.3971357,2.78515625 C50.3971357,3.10199653 50.4861114,3.37326389 50.6640628,3.59895833 C50.8420142,3.82465278 51.1480038,4.02539062 51.5820315,4.20117188 C52.0030385,4.37044271 52.2808163,4.51692708 52.4153649,4.640625 C52.5499135,4.76432292 52.6171878,4.91514757 52.6171878,5.09309896 C52.6171878,5.2905816 52.5439456,5.44791667 52.3974612,5.56510417 C52.2509769,5.68229167 52.0236548,5.74088542 51.7154951,5.74088542 C51.5049916,5.74088542 51.2776696,5.71158854 51.0335289,5.65299479 C50.7893883,5.59440104 50.5588111,5.5141059 50.3417972,5.41210938 L50.3417972,5.41210938 L50.3417972,6.14778646 C50.6846791,6.31488715 51.1252173,6.3984375 51.6634118,6.3984375 Z M55.9969819,6.33333333 L55.9969819,4.55273438 L56.4917735,4.55273438 C57.092902,4.55273438 57.5562267,4.4203559 57.8817475,4.15559896 C58.2072683,3.89084201 58.3700287,3.50998264 58.3700287,3.01302083 C58.3700287,2.53993056 58.2219168,2.18185764 57.9256928,1.93880208 C57.6294688,1.69574653 57.1840478,1.57421875 56.5894298,1.57421875 L56.5894298,1.57421875 L55.2189871,1.57421875 L55.2189871,6.33333333 L55.9969819,6.33333333 Z M56.4103933,3.8984375 L55.9969819,3.8984375 L55.9969819,2.22526042 L56.5373464,2.22526042 C56.8910791,2.22526042 57.1514957,2.29253472 57.3185964,2.42708333 C57.4856971,2.56163194 57.5692475,2.765625 57.5692475,3.0390625 C57.5692475,3.33420139 57.4759315,3.55121528 57.2892996,3.69010417 C57.1026676,3.82899306 56.8096989,3.8984375 56.4103933,3.8984375 L56.4103933,3.8984375 Z M62.2283384,6.3984375 C62.9379738,6.3984375 63.4864764,6.18359375 63.8738462,5.75390625 C64.261216,5.32421875 64.4549009,4.72200521 64.4549009,3.94726562 C64.4549009,3.1703559 64.2617586,2.56814236 63.8754738,2.140625 C63.4891891,1.71310764 62.9423141,1.49934896 62.2348488,1.49934896 C61.5165329,1.49934896 60.96369,1.70985243 60.5763202,2.13085938 C60.1889504,2.55186632 59.9952655,3.15516493 59.9952655,3.94075521 C59.9952655,4.72634549 60.1878653,5.33235677 60.573065,5.75878906 C60.9582646,6.18522135 61.5100224,6.3984375 62.2283384,6.3984375 Z M62.2283384,5.734375 C61.7639287,5.734375 61.4134513,5.58300781 61.1769061,5.28027344 C60.940361,4.97753906 60.8220884,4.53320312 60.8220884,3.94726562 C60.8220884,3.36349826 60.9409035,2.92078993 61.1785337,2.61914062 C61.4161639,2.31749132 61.768269,2.16666667 62.2348488,2.16666667 C62.6970884,2.16666667 63.0448532,2.31749132 63.2781431,2.61914062 C63.511433,2.92078993 63.628078,3.36349826 63.628078,3.94726562 C63.628078,4.53971354 63.510348,4.98567708 63.2748879,5.28515625 C63.0394278,5.58463542 62.690578,5.734375 62.2283384,5.734375 Z M67.0925075,6.33333333 L67.0925075,3.859375 C67.0925075,3.52517361 67.0773165,3.15625 67.0469346,2.75260417 L67.0469346,2.75260417 L67.0306585,2.54101562 L67.0567002,2.54101562 L69.397195,6.33333333 L70.350971,6.33333333 L70.350971,1.57421875 L69.6380804,1.57421875 L69.6388616,4.18144531 C69.640945,4.34411892 69.647195,4.55088976 69.6576116,4.80175781 C69.6706325,5.11534288 69.679313,5.29709201 69.6836533,5.34700521 L69.6836533,5.34700521 L69.6641221,5.34700521 L67.3301377,1.57421875 L66.3861273,1.57421875 L66.3861273,6.33333333 L67.0925075,6.33333333 Z M73.5354526,6.3984375 C74.073647,6.3984375 74.495739,6.27799479 74.8017286,6.03710938 C75.1077182,5.79622396 75.260713,5.46419271 75.260713,5.04101562 C75.260713,4.82617188 75.2227356,4.63953993 75.1467807,4.48111979 C75.0708258,4.32269965 74.9514682,4.18055556 74.7887078,4.0546875 C74.6259474,3.92881944 74.369871,3.79318576 74.0204786,3.64778646 C73.7101488,3.51974826 73.495305,3.41666667 73.3759474,3.33854167 C73.2565897,3.26041667 73.1708693,3.17740885 73.1187859,3.08951823 C73.0667026,3.0016276 73.0406609,2.89583333 73.0406609,2.77213542 C73.0406609,2.59201389 73.1057651,2.44715712 73.2359734,2.3375651 C73.3661818,2.22797309 73.557154,2.17317708 73.8088901,2.17317708 C74.1409213,2.17317708 74.5185255,2.26215278 74.9417026,2.44010417 L74.9417026,2.44010417 L75.1890984,1.80533854 C74.7377095,1.60568576 74.2841505,1.50585938 73.8284213,1.50585938 C73.3531609,1.50585938 72.9744717,1.61979167 72.6923536,1.84765625 C72.4102356,2.07552083 72.2691765,2.38802083 72.2691765,2.78515625 C72.2691765,3.10199653 72.3581522,3.37326389 72.5361036,3.59895833 C72.714055,3.82465278 73.0200446,4.02539062 73.4540724,4.20117188 C73.8750793,4.37044271 74.1528571,4.51692708 74.2874057,4.640625 C74.4219543,4.76432292 74.4892286,4.91514757 74.4892286,5.09309896 C74.4892286,5.2905816 74.4159864,5.44791667 74.2695021,5.56510417 C74.1230177,5.68229167 73.8956956,5.74088542 73.5875359,5.74088542 C73.3770324,5.74088542 73.1497104,5.71158854 72.9055698,5.65299479 C72.6614291,5.59440104 72.4308519,5.5141059 72.213838,5.41210938 L72.213838,5.41210938 L72.213838,6.14778646 C72.5567199,6.31488715 72.9972581,6.3984375 73.5354526,6.3984375 Z M79.7830852,6.33333333 L79.7830852,5.67252604 L77.8690227,5.67252604 L77.8690227,4.17838542 L79.6626425,4.17838542 L79.6626425,3.52734375 L77.8690227,3.52734375 L77.8690227,2.23177083 L79.7830852,2.23177083 L79.7830852,1.57421875 L77.0910279,1.57421875 L77.0910279,6.33333333 L79.7830852,6.33333333 Z" id="path-1"></path>
        <path d="M8.21777344,27.5 L8.21777344,14.2724609 L12.5793457,14.2724609 L12.5793457,11.4379883 L0.450439453,11.4379883 L0.450439453,14.2724609 L4.81201172,14.2724609 L4.81201172,27.5 L8.21777344,27.5 Z M20.3466797,27.7197266 C21.3061523,27.7197266 22.1191406,27.6483154 22.7856445,27.5054932 C23.4521484,27.3626709 24.0783691,27.1447754 24.6643066,26.8518066 L24.6643066,26.8518066 L24.6643066,24.2590332 C23.9465332,24.5959473 23.2580566,24.8413086 22.598877,24.9951172 C21.9396973,25.1489258 21.2402344,25.2258301 20.5004883,25.2258301 C19.5483398,25.2258301 18.8085938,24.9584961 18.28125,24.4238281 C17.7539062,23.8891602 17.4719238,23.145752 17.4353027,22.1936035 L17.4353027,22.1936035 L25.3564453,22.1936035 L25.3564453,20.567627 C25.3564453,18.8244629 24.8730469,17.4584961 23.90625,16.4697266 C22.9394531,15.480957 21.5881348,14.9865723 19.8522949,14.9865723 C18.0358887,14.9865723 16.6131592,15.5487061 15.5841064,16.6729736 C14.5550537,17.7972412 14.0405273,19.3884277 14.0405273,21.4465332 C14.0405273,23.4460449 14.597168,24.9914551 15.7104492,26.0827637 C16.8237305,27.1740723 18.3691406,27.7197266 20.3466797,27.7197266 Z M22.2143555,19.9633789 L17.512207,19.9633789 C17.5708008,19.1357422 17.8015137,18.4967041 18.2043457,18.0462646 C18.6071777,17.5958252 19.1638184,17.3706055 19.8742676,17.3706055 C20.5847168,17.3706055 21.1486816,17.5958252 21.5661621,18.0462646 C21.9836426,18.4967041 22.199707,19.1357422 22.2143555,19.9633789 L22.2143555,19.9633789 Z M31.4318848,27.5 L31.4318848,21.7211914 C31.4318848,20.2783203 31.6259766,19.2419434 32.0141602,18.6120605 C32.4023438,17.9821777 33.0249023,17.6672363 33.8818359,17.6672363 C34.519043,17.6672363 34.9859619,17.8887939 35.2825928,18.3319092 C35.5792236,18.7750244 35.7275391,19.4396973 35.7275391,20.3259277 L35.7275391,20.3259277 L35.7275391,27.5 L39.0783691,27.5 L39.0783691,21.3366699 C39.0783691,20.0622559 39.2816162,19.1320801 39.6881104,18.5461426 C40.0946045,17.9602051 40.7080078,17.6672363 41.5283203,17.6672363 C42.1655273,17.6672363 42.6324463,17.8887939 42.9290771,18.3319092 C43.225708,18.7750244 43.3740234,19.4396973 43.3740234,20.3259277 L43.3740234,20.3259277 L43.3740234,27.5 L46.7358398,27.5 L46.7358398,19.4909668 C46.7358398,17.9162598 46.3787842,16.7718506 45.6646729,16.0577393 C44.9505615,15.3436279 43.8977051,14.9865723 42.5061035,14.9865723 C41.7004395,14.9865723 40.9771729,15.144043 40.3363037,15.4589844 C39.6954346,15.7739258 39.2102051,16.217041 38.8806152,16.7883301 L38.8806152,16.7883301 L38.5839844,16.7883301 C37.9321289,15.5871582 36.6870117,14.9865723 34.8486328,14.9865723 C34.0429688,14.9865723 33.3288574,15.145874 32.7062988,15.4644775 C32.0837402,15.7830811 31.607666,16.2243652 31.2780762,16.7883301 L31.2780762,16.7883301 L31.0913086,16.7883301 L30.6408691,15.2172852 L28.0810547,15.2172852 L28.0810547,27.5 L31.4318848,27.5 Z M53.5253906,32.9052734 L53.5253906,27.9284668 C53.5253906,27.767334 53.4667969,27.1740723 53.3496094,26.1486816 L53.3496094,26.1486816 L53.5253906,26.1486816 C54.3457031,27.1960449 55.4772949,27.7197266 56.920166,27.7197266 C57.8796387,27.7197266 58.7145996,27.467041 59.4250488,26.9616699 C60.135498,26.4562988 60.6829834,25.7202148 61.0675049,24.753418 C61.4520264,23.7866211 61.6442871,22.6477051 61.6442871,21.3366699 C61.6442871,19.3444824 61.2341309,17.7880859 60.4138184,16.6674805 C59.5935059,15.546875 58.458252,14.9865723 57.0080566,14.9865723 C55.4699707,14.9865723 54.309082,15.5944824 53.5253906,16.8103027 L53.5253906,16.8103027 L53.371582,16.8103027 L52.8991699,15.2172852 L50.1745605,15.2172852 L50.1745605,32.9052734 L53.5253906,32.9052734 Z M55.9753418,25.0061035 C55.1257324,25.0061035 54.5050049,24.720459 54.1131592,24.1491699 C53.7213135,23.5778809 53.5253906,22.6330566 53.5253906,21.3146973 L53.5253906,21.3146973 L53.5253906,20.9521484 C53.5400391,19.7802734 53.737793,18.9398193 54.1186523,18.4307861 C54.4995117,17.9217529 55.1037598,17.6672363 55.9313965,17.6672363 C56.7224121,17.6672363 57.3028564,17.9693604 57.6727295,18.5736084 C58.0426025,19.1778564 58.2275391,20.0842285 58.2275391,21.2927246 C58.2275391,23.7683105 57.4768066,25.0061035 55.9753418,25.0061035 Z M69.5874023,27.7197266 C71.4697266,27.7197266 72.9382324,27.1557617 73.9929199,26.027832 C75.0476074,24.8999023 75.5749512,23.3361816 75.5749512,21.3366699 C75.5749512,20.0476074 75.333252,18.9233398 74.8498535,17.9638672 C74.3664551,17.0043945 73.6743164,16.2683105 72.7734375,15.7556152 C71.8725586,15.2429199 70.8325195,14.9865723 69.6533203,14.9865723 C67.7563477,14.9865723 66.2841797,15.5432129 65.2368164,16.6564941 C64.1894531,17.7697754 63.6657715,19.329834 63.6657715,21.3366699 C63.6657715,22.6257324 63.9074707,23.7536621 64.3908691,24.720459 C64.8742676,25.6872559 65.5664062,26.428833 66.4672852,26.9451904 C67.3681641,27.4615479 68.4082031,27.7197266 69.5874023,27.7197266 Z M69.6313477,25.0280762 C68.7304688,25.0280762 68.0804443,24.7167969 67.6812744,24.0942383 C67.2821045,23.4716797 67.0825195,22.5524902 67.0825195,21.3366699 C67.0825195,20.1135254 67.2802734,19.1998291 67.6757812,18.5955811 C68.0712891,17.991333 68.7158203,17.689209 69.609375,17.689209 C70.5102539,17.689209 71.1584473,17.9931641 71.5539551,18.6010742 C71.9494629,19.2089844 72.1472168,20.1208496 72.1472168,21.3366699 C72.1472168,22.5598145 71.9512939,23.480835 71.5594482,24.0997314 C71.1676025,24.7186279 70.5249023,25.0280762 69.6313477,25.0280762 Z M81.6943359,27.5 L81.6943359,21.2487793 C81.6943359,20.2600098 81.9927979,19.4909668 82.5897217,18.9416504 C83.1866455,18.392334 84.0197754,18.1176758 85.0891113,18.1176758 C85.4772949,18.1176758 85.8068848,18.1542969 86.0778809,18.2275391 L86.0778809,18.2275391 L86.3305664,15.0854492 C86.0302734,15.0195313 85.6530762,14.9865723 85.1989746,14.9865723 C84.4372559,14.9865723 83.7322998,15.1971436 83.0841064,15.6182861 C82.4359131,16.0394287 81.9213867,16.5942383 81.5405273,17.2827148 L81.5405273,17.2827148 L81.3757324,17.2827148 L80.8813477,15.2172852 L78.3435059,15.2172852 L78.3435059,27.5 L81.6943359,27.5 Z M91.5490723,27.7197266 C92.5085449,27.7197266 93.2867432,27.5823975 93.883667,27.3077393 C94.4805908,27.0330811 95.0610352,26.5405273 95.625,25.8300781 L95.625,25.8300781 L95.7128906,25.8300781 L96.361084,27.5 L98.7011719,27.5 L98.7011719,19.3151855 C98.7011719,17.8503418 98.2617188,16.7590332 97.3828125,16.0412598 C96.5039062,15.3234863 95.2404785,14.9645996 93.5925293,14.9645996 C91.8713379,14.9645996 90.3039551,15.3344727 88.8903809,16.0742188 L88.8903809,16.0742188 L90,18.3374023 C91.3256836,17.7441406 92.479248,17.4475098 93.4606934,17.4475098 C94.7351074,17.4475098 95.3723145,18.0700684 95.3723145,19.3151855 L95.3723145,19.3151855 L95.3723145,19.8535156 L93.2409668,19.9194336 C91.4025879,19.9853516 90.0274658,20.3277588 89.1156006,20.9466553 C88.2037354,21.5655518 87.7478027,22.5268555 87.7478027,23.8305664 C87.7478027,25.0756836 88.0865479,26.0351563 88.7640381,26.7089844 C89.4415283,27.3828125 90.369873,27.7197266 91.5490723,27.7197266 Z M92.8125,25.2697754 C91.7285156,25.2697754 91.1865234,24.7973633 91.1865234,23.8525391 C91.1865234,23.1933594 91.4245605,22.7026367 91.9006348,22.3803711 C92.376709,22.0581055 93.1018066,21.8823242 94.0759277,21.8530273 L94.0759277,21.8530273 L95.3723145,21.809082 L95.3723145,22.8198242 C95.3723145,23.5595703 95.1397705,24.152832 94.6746826,24.5996094 C94.2095947,25.0463867 93.5888672,25.2697754 92.8125,25.2697754 Z M105.501709,27.5 L105.501709,21.2487793 C105.501709,20.2600098 105.800171,19.4909668 106.397095,18.9416504 C106.994019,18.392334 107.827148,18.1176758 108.896484,18.1176758 C109.284668,18.1176758 109.614258,18.1542969 109.885254,18.2275391 L109.885254,18.2275391 L110.137939,15.0854492 C109.837646,15.0195313 109.460449,14.9865723 109.006348,14.9865723 C108.244629,14.9865723 107.539673,15.1971436 106.891479,15.6182861 C106.243286,16.0394287 105.72876,16.5942383 105.3479,17.2827148 L105.3479,17.2827148 L105.183105,17.2827148 L104.688721,15.2172852 L102.150879,15.2172852 L102.150879,27.5 L105.501709,27.5 Z M113.082275,32.9052734 C114.261475,32.9052734 115.292358,32.5866699 116.174927,31.9494629 C117.057495,31.3122559 117.736816,30.3527832 118.212891,29.0710449 L118.212891,29.0710449 L123.409424,15.2172852 L119.816895,15.2172852 L117.542725,22.1276855 C117.30835,22.7941895 117.150879,23.5046387 117.070312,24.2590332 L117.070312,24.2590332 L117.004395,24.2590332 C116.931152,23.4387207 116.795654,22.7282715 116.5979,22.1276855 L116.5979,22.1276855 L114.279785,15.2172852 L110.610352,15.2172852 L115.488281,27.4121094 L115.290527,28.0163574 C115.041504,28.7487793 114.695435,29.2962646 114.252319,29.6588135 C113.809204,30.0213623 113.291016,30.2026367 112.697754,30.2026367 C112.22168,30.2026367 111.782227,30.1550293 111.379395,30.0598145 L111.379395,30.0598145 L111.379395,32.7185059 C111.936035,32.8430176 112.503662,32.9052734 113.082275,32.9052734 Z M134.626465,27.5 L134.626465,21.1499023 L140.075684,21.1499023 L140.075684,18.3703613 L134.626465,18.3703613 L134.626465,14.2285156 L140.482178,14.2285156 L140.482178,11.4379883 L131.275635,11.4379883 L131.275635,27.5 L134.626465,27.5 Z M148.535156,27.7197266 C150.41748,27.7197266 151.885986,27.1557617 152.940674,26.027832 C153.995361,24.8999023 154.522705,23.3361816 154.522705,21.3366699 C154.522705,20.0476074 154.281006,18.9233398 153.797607,17.9638672 C153.314209,17.0043945 152.62207,16.2683105 151.721191,15.7556152 C150.820312,15.2429199 149.780273,14.9865723 148.601074,14.9865723 C146.704102,14.9865723 145.231934,15.5432129 144.18457,16.6564941 C143.137207,17.7697754 142.613525,19.329834 142.613525,21.3366699 C142.613525,22.6257324 142.855225,23.7536621 143.338623,24.720459 C143.822021,25.6872559 144.51416,26.428833 145.415039,26.9451904 C146.315918,27.4615479 147.355957,27.7197266 148.535156,27.7197266 Z M148.579102,25.0280762 C147.678223,25.0280762 147.028198,24.7167969 146.629028,24.0942383 C146.229858,23.4716797 146.030273,22.5524902 146.030273,21.3366699 C146.030273,20.1135254 146.228027,19.1998291 146.623535,18.5955811 C147.019043,17.991333 147.663574,17.689209 148.557129,17.689209 C149.458008,17.689209 150.106201,17.9931641 150.501709,18.6010742 C150.897217,19.2089844 151.094971,20.1208496 151.094971,21.3366699 C151.094971,22.5598145 150.899048,23.480835 150.507202,24.0997314 C150.115356,24.7186279 149.472656,25.0280762 148.579102,25.0280762 Z M160.64209,27.5 L160.64209,21.2487793 C160.64209,20.2600098 160.940552,19.4909668 161.537476,18.9416504 C162.134399,18.392334 162.967529,18.1176758 164.036865,18.1176758 C164.425049,18.1176758 164.754639,18.1542969 165.025635,18.2275391 L165.025635,18.2275391 L165.27832,15.0854492 C164.978027,15.0195313 164.60083,14.9865723 164.146729,14.9865723 C163.38501,14.9865723 162.680054,15.1971436 162.03186,15.6182861 C161.383667,16.0394287 160.869141,16.5942383 160.488281,17.2827148 L160.488281,17.2827148 L160.323486,17.2827148 L159.829102,15.2172852 L157.29126,15.2172852 L157.29126,27.5 L160.64209,27.5 Z M173.067627,27.7197266 C174.0271,27.7197266 174.840088,27.6483154 175.506592,27.5054932 C176.173096,27.3626709 176.799316,27.1447754 177.385254,26.8518066 L177.385254,26.8518066 L177.385254,24.2590332 C176.66748,24.5959473 175.979004,24.8413086 175.319824,24.9951172 C174.660645,25.1489258 173.961182,25.2258301 173.221436,25.2258301 C172.269287,25.2258301 171.529541,24.9584961 171.002197,24.4238281 C170.474854,23.8891602 170.192871,23.145752 170.15625,22.1936035 L170.15625,22.1936035 L178.077393,22.1936035 L178.077393,20.567627 C178.077393,18.8244629 177.593994,17.4584961 176.627197,16.4697266 C175.6604,15.480957 174.309082,14.9865723 172.573242,14.9865723 C170.756836,14.9865723 169.334106,15.5487061 168.305054,16.6729736 C167.276001,17.7972412 166.761475,19.3884277 166.761475,21.4465332 C166.761475,23.4460449 167.318115,24.9914551 168.431396,26.0827637 C169.544678,27.1740723 171.090088,27.7197266 173.067627,27.7197266 Z M174.935303,19.9633789 L170.233154,19.9633789 C170.291748,19.1357422 170.522461,18.4967041 170.925293,18.0462646 C171.328125,17.5958252 171.884766,17.3706055 172.595215,17.3706055 C173.305664,17.3706055 173.869629,17.5958252 174.287109,18.0462646 C174.70459,18.4967041 174.920654,19.1357422 174.935303,19.9633789 L174.935303,19.9633789 Z M182.48291,13.6901855 C183.09082,13.6901855 183.546753,13.5455322 183.850708,13.2562256 C184.154663,12.9669189 184.306641,12.5622559 184.306641,12.0422363 C184.306641,10.9509277 183.69873,10.4052734 182.48291,10.4052734 C181.26709,10.4052734 180.65918,10.9509277 180.65918,12.0422363 C180.65918,13.1408691 181.26709,13.6901855 182.48291,13.6901855 Z M184.152832,27.5 L184.152832,15.2172852 L180.802002,15.2172852 L180.802002,27.5 L184.152832,27.5 Z M191.260986,32.9052734 C193.502197,32.9052734 195.221558,32.5097656 196.419067,31.71875 C197.616577,30.9277344 198.215332,29.8144531 198.215332,28.3789063 C198.215332,27.2583008 197.861938,26.4086914 197.155151,25.8300781 C196.448364,25.2514648 195.421143,24.9621582 194.073486,24.9621582 L194.073486,24.9621582 L191.986084,24.9621582 C190.755615,24.9621582 190.140381,24.720459 190.140381,24.2370605 C190.140381,23.9147949 190.3125,23.6218262 190.656738,23.3581543 L190.656738,23.3581543 L191.151123,23.4130859 L191.755371,23.4460449 C193.388672,23.4460449 194.664917,23.0780029 195.584106,22.3419189 C196.503296,21.605835 196.962891,20.5786133 196.962891,19.2602539 C196.962891,18.5791016 196.787109,17.9638672 196.435547,17.4145508 L196.435547,17.4145508 L198.358154,16.920166 L198.358154,15.2172852 L194.073486,15.2172852 C193.94165,15.1879883 193.639526,15.1422119 193.167114,15.0799561 C192.694702,15.0177002 192.286377,14.9865723 191.942139,14.9865723 C190.323486,14.9865723 189.078369,15.3527832 188.206787,16.0852051 C187.335205,16.817627 186.899414,17.8540039 186.899414,19.1943359 C186.899414,20.0292969 187.088013,20.7543945 187.46521,21.3696289 C187.842407,21.9848633 188.353271,22.4316406 188.997803,22.7099609 C188.485107,23.0102539 188.093262,23.31604 187.822266,23.6273193 C187.55127,23.9385986 187.415771,24.3286133 187.415771,24.7973633 C187.415771,25.1708984 187.543945,25.524292 187.800293,25.8575439 C188.056641,26.1907959 188.356934,26.4306641 188.701172,26.5771484 C187.807617,26.7895508 187.130127,27.1447754 186.668701,27.6428223 C186.207275,28.1408691 185.976562,28.7597656 185.976562,29.4995117 C185.976562,30.5761719 186.428833,31.4129639 187.333374,32.0098877 C188.237915,32.6068115 189.547119,32.9052734 191.260986,32.9052734 Z M191.942139,21.4025879 C191.31958,21.4025879 190.856323,21.2084961 190.552368,20.8203125 C190.248413,20.4321289 190.096436,19.9047852 190.096436,19.2382813 C190.096436,17.7587891 190.71167,17.019043 191.942139,17.019043 C193.157959,17.019043 193.765869,17.7587891 193.765869,19.2382813 C193.765869,19.9047852 193.619385,20.4321289 193.326416,20.8203125 C193.033447,21.2084961 192.572021,21.4025879 191.942139,21.4025879 Z M191.403809,30.7189941 C190.605469,30.7189941 189.984741,30.5871582 189.541626,30.3234863 C189.098511,30.0598145 188.876953,29.6972656 188.876953,29.2358398 C188.876953,28.7597656 189.083862,28.3770752 189.497681,28.0877686 C189.911499,27.7984619 190.426025,27.6538086 191.04126,27.6538086 L191.04126,27.6538086 L192.7771,27.6538086 C193.619385,27.6538086 194.241943,27.7416992 194.644775,27.9174805 C195.047607,28.0932617 195.249023,28.4118652 195.249023,28.873291 C195.249023,29.4445801 194.908447,29.8950195 194.227295,30.2246094 C193.546143,30.5541992 192.60498,30.7189941 191.403809,30.7189941 Z M203.730469,27.5 L203.730469,21.7211914 C203.730469,20.2709961 203.939209,19.2327881 204.356689,18.6065674 C204.77417,17.9803467 205.45166,17.6672363 206.38916,17.6672363 C207.077637,17.6672363 207.579346,17.8887939 207.894287,18.3319092 C208.209229,18.7750244 208.366699,19.4396973 208.366699,20.3259277 L208.366699,20.3259277 L208.366699,27.5 L211.717529,27.5 L211.717529,19.4909668 C211.717529,18.0334473 211.347656,16.918335 210.60791,16.1456299 C209.868164,15.3729248 208.78418,14.9865723 207.355957,14.9865723 C206.520996,14.9865723 205.775757,15.1385498 205.120239,15.4425049 C204.464722,15.74646 203.950195,16.1950684 203.57666,16.7883301 L203.57666,16.7883301 L203.389893,16.7883301 L202.939453,15.2172852 L200.379639,15.2172852 L200.379639,27.5 L203.730469,27.5 Z M227.219238,27.5 L229.383545,19.0844727 C229.47876,18.7109375 229.614258,18.0865479 229.790039,17.2113037 C229.96582,16.3360596 230.075684,15.7006836 230.119629,15.3051758 C230.148926,15.6274414 230.26062,16.2591553 230.454712,17.2003174 C230.648804,18.1414795 230.786133,18.762207 230.866699,19.0625 L230.866699,19.0625 L233.041992,27.5 L236.920166,27.5 L241.00708,11.4379883 L237.65625,11.4379883 L235.612793,20.2050781 C235.480957,20.7324219 235.334473,21.4227295 235.17334,22.276001 C235.012207,23.1292725 234.89502,23.8415527 234.821777,24.4128418 C234.741211,23.8195801 234.624023,23.1091309 234.470215,22.2814941 C234.316406,21.4538574 234.188232,20.838623 234.085693,20.435791 L234.085693,20.435791 L231.745605,11.4379883 L228.526611,11.4379883 L226.186523,20.435791 C226.047363,20.9191895 225.899048,21.5985107 225.741577,22.4737549 C225.584106,23.348999 225.483398,23.9953613 225.439453,24.4128418 C225.27832,23.2263184 225.018311,21.8237305 224.659424,20.2050781 L224.659424,20.2050781 L222.60498,11.4379883 L219.25415,11.4379883 L223.352051,27.5 L227.219238,27.5 Z M247.939453,27.7197266 C249.821777,27.7197266 251.290283,27.1557617 252.344971,26.027832 C253.399658,24.8999023 253.927002,23.3361816 253.927002,21.3366699 C253.927002,20.0476074 253.685303,18.9233398 253.201904,17.9638672 C252.718506,17.0043945 252.026367,16.2683105 251.125488,15.7556152 C250.224609,15.2429199 249.18457,14.9865723 248.005371,14.9865723 C246.108398,14.9865723 244.63623,15.5432129 243.588867,16.6564941 C242.541504,17.7697754 242.017822,19.329834 242.017822,21.3366699 C242.017822,22.6257324 242.259521,23.7536621 242.74292,24.720459 C243.226318,25.6872559 243.918457,26.428833 244.819336,26.9451904 C245.720215,27.4615479 246.760254,27.7197266 247.939453,27.7197266 Z M247.983398,25.0280762 C247.08252,25.0280762 246.432495,24.7167969 246.033325,24.0942383 C245.634155,23.4716797 245.43457,22.5524902 245.43457,21.3366699 C245.43457,20.1135254 245.632324,19.1998291 246.027832,18.5955811 C246.42334,17.991333 247.067871,17.689209 247.961426,17.689209 C248.862305,17.689209 249.510498,17.9931641 249.906006,18.6010742 C250.301514,19.2089844 250.499268,20.1208496 250.499268,21.3366699 C250.499268,22.5598145 250.303345,23.480835 249.911499,24.0997314 C249.519653,24.7186279 248.876953,25.0280762 247.983398,25.0280762 Z M260.046387,27.5 L260.046387,21.2487793 C260.046387,20.2600098 260.344849,19.4909668 260.941772,18.9416504 C261.538696,18.392334 262.371826,18.1176758 263.441162,18.1176758 C263.829346,18.1176758 264.158936,18.1542969 264.429932,18.2275391 L264.429932,18.2275391 L264.682617,15.0854492 C264.382324,15.0195313 264.005127,14.9865723 263.551025,14.9865723 C262.789307,14.9865723 262.084351,15.1971436 261.436157,15.6182861 C260.787964,16.0394287 260.273438,16.5942383 259.892578,17.2827148 L259.892578,17.2827148 L259.727783,17.2827148 L259.233398,15.2172852 L256.695557,15.2172852 L256.695557,27.5 L260.046387,27.5 Z M270.263672,27.5 L270.263672,23.6767578 L271.702881,22.5231934 L275.240479,27.5 L279.107666,27.5 L273.933105,20.5456543 L278.811035,15.2172852 L275.031738,15.2172852 L271.593018,18.9526367 L270.131836,20.8203125 L270.087891,20.8203125 L270.263672,18.0297852 L270.263672,10.4052734 L266.912842,10.4052734 L266.912842,27.5 L270.263672,27.5 Z M286.424561,27.7197266 C287.384033,27.7197266 288.197021,27.6483154 288.863525,27.5054932 C289.530029,27.3626709 290.15625,27.1447754 290.742188,26.8518066 L290.742188,26.8518066 L290.742188,24.2590332 C290.024414,24.5959473 289.335938,24.8413086 288.676758,24.9951172 C288.017578,25.1489258 287.318115,25.2258301 286.578369,25.2258301 C285.626221,25.2258301 284.886475,24.9584961 284.359131,24.4238281 C283.831787,23.8891602 283.549805,23.145752 283.513184,22.1936035 L283.513184,22.1936035 L291.434326,22.1936035 L291.434326,20.567627 C291.434326,18.8244629 290.950928,17.4584961 289.984131,16.4697266 C289.017334,15.480957 287.666016,14.9865723 285.930176,14.9865723 C284.11377,14.9865723 282.69104,15.5487061 281.661987,16.6729736 C280.632935,17.7972412 280.118408,19.3884277 280.118408,21.4465332 C280.118408,23.4460449 280.675049,24.9914551 281.78833,26.0827637 C282.901611,27.1740723 284.447021,27.7197266 286.424561,27.7197266 Z M288.292236,19.9633789 L283.590088,19.9633789 C283.648682,19.1357422 283.879395,18.4967041 284.282227,18.0462646 C284.685059,17.5958252 285.241699,17.3706055 285.952148,17.3706055 C286.662598,17.3706055 287.226562,17.5958252 287.644043,18.0462646 C288.061523,18.4967041 288.277588,19.1357422 288.292236,19.9633789 L288.292236,19.9633789 Z M297.509766,27.5 L297.509766,21.2487793 C297.509766,20.2600098 297.808228,19.4909668 298.405151,18.9416504 C299.002075,18.392334 299.835205,18.1176758 300.904541,18.1176758 C301.292725,18.1176758 301.622314,18.1542969 301.893311,18.2275391 L301.893311,18.2275391 L302.145996,15.0854492 C301.845703,15.0195313 301.468506,14.9865723 301.014404,14.9865723 C300.252686,14.9865723 299.547729,15.1971436 298.899536,15.6182861 C298.251343,16.0394287 297.736816,16.5942383 297.355957,17.2827148 L297.355957,17.2827148 L297.191162,17.2827148 L296.696777,15.2172852 L294.158936,15.2172852 L294.158936,27.5 L297.509766,27.5 Z M312.132568,27.5 L313.297119,23.6767578 L319.152832,23.6767578 L320.317383,27.5 L323.986816,27.5 L318.295898,11.3720703 L314.13208,11.3720703 L308.463135,27.5 L312.132568,27.5 Z M318.339844,20.8203125 L314.154053,20.8203125 C315.296631,17.121582 315.98877,14.8034668 316.230469,13.8659668 C316.289062,14.1296387 316.386108,14.4885254 316.521606,14.942627 C316.657104,15.3967285 317.263184,17.355957 318.339844,20.8203125 L318.339844,20.8203125 Z M330.040283,27.7197266 C330.882568,27.7197266 331.633301,27.5640869 332.29248,27.2528076 C332.95166,26.9415283 333.460693,26.5002441 333.81958,25.9289551 L333.81958,25.9289551 L333.995361,25.9289551 L334.445801,27.5 L337.016602,27.5 L337.016602,15.2172852 L333.665771,15.2172852 L333.665771,20.9960938 C333.665771,22.4462891 333.457031,23.4844971 333.039551,24.1107178 C332.62207,24.7369385 331.94458,25.0500488 331.00708,25.0500488 C330.318604,25.0500488 329.816895,24.8284912 329.501953,24.385376 C329.187012,23.9422607 329.029541,23.2775879 329.029541,22.3913574 L329.029541,22.3913574 L329.029541,15.2172852 L325.678711,15.2172852 L325.678711,23.2263184 C325.678711,24.6765137 326.044922,25.7879639 326.777344,26.5606689 C327.509766,27.333374 328.597412,27.7197266 330.040283,27.7197266 Z M344.73999,27.7197266 C345.955811,27.7197266 346.981201,27.532959 347.816162,27.1594238 L347.816162,27.1594238 L347.816162,24.6655273 C346.99585,24.921875 346.292725,25.0500488 345.706787,25.0500488 C345.267334,25.0500488 344.91394,24.9365234 344.646606,24.7094727 C344.379272,24.4824219 344.245605,24.1308594 344.245605,23.6547852 L344.245605,23.6547852 L344.245605,17.7331543 L347.684326,17.7331543 L347.684326,15.2172852 L344.245605,15.2172852 L344.245605,12.6025391 L342.103271,12.6025391 L341.136475,15.1953125 L339.290771,16.315918 L339.290771,17.7331543 L340.894775,17.7331543 L340.894775,23.6547852 C340.894775,25.0097656 341.200562,26.026001 341.812134,26.7034912 C342.423706,27.3809814 343.399658,27.7197266 344.73999,27.7197266 Z M353.649902,27.5 L353.649902,21.7211914 C353.649902,20.2929688 353.858643,19.2602539 354.276123,18.6230469 C354.693604,17.9858398 355.371094,17.6672363 356.308594,17.6672363 C357.626953,17.6672363 358.286133,18.5534668 358.286133,20.3259277 L358.286133,20.3259277 L358.286133,27.5 L361.636963,27.5 L361.636963,19.4909668 C361.636963,18.0407715 361.263428,16.9274902 360.516357,16.151123 C359.769287,15.3747559 358.674316,14.9865723 357.231445,14.9865723 C355.605469,14.9865723 354.418945,15.5871582 353.671875,16.7883301 L353.671875,16.7883301 L353.496094,16.7883301 L353.572998,15.7995605 C353.624268,14.7961426 353.649902,14.1589355 353.649902,13.8879395 L353.649902,10.4052734 L350.299072,10.4052734 L350.299072,27.5 L353.649902,27.5 Z M370.26123,27.7197266 C372.143555,27.7197266 373.612061,27.1557617 374.666748,26.027832 C375.721436,24.8999023 376.248779,23.3361816 376.248779,21.3366699 C376.248779,20.0476074 376.00708,18.9233398 375.523682,17.9638672 C375.040283,17.0043945 374.348145,16.2683105 373.447266,15.7556152 C372.546387,15.2429199 371.506348,14.9865723 370.327148,14.9865723 C368.430176,14.9865723 366.958008,15.5432129 365.910645,16.6564941 C364.863281,17.7697754 364.3396,19.329834 364.3396,21.3366699 C364.3396,22.6257324 364.581299,23.7536621 365.064697,24.720459 C365.548096,25.6872559 366.240234,26.428833 367.141113,26.9451904 C368.041992,27.4615479 369.082031,27.7197266 370.26123,27.7197266 Z M370.305176,25.0280762 C369.404297,25.0280762 368.754272,24.7167969 368.355103,24.0942383 C367.955933,23.4716797 367.756348,22.5524902 367.756348,21.3366699 C367.756348,20.1135254 367.954102,19.1998291 368.349609,18.5955811 C368.745117,17.991333 369.389648,17.689209 370.283203,17.689209 C371.184082,17.689209 371.832275,17.9931641 372.227783,18.6010742 C372.623291,19.2089844 372.821045,20.1208496 372.821045,21.3366699 C372.821045,22.5598145 372.625122,23.480835 372.233276,24.0997314 C371.841431,24.7186279 371.19873,25.0280762 370.305176,25.0280762 Z M382.368164,27.5 L382.368164,21.2487793 C382.368164,20.2600098 382.666626,19.4909668 383.26355,18.9416504 C383.860474,18.392334 384.693604,18.1176758 385.762939,18.1176758 C386.151123,18.1176758 386.480713,18.1542969 386.751709,18.2275391 L386.751709,18.2275391 L387.004395,15.0854492 C386.704102,15.0195313 386.326904,14.9865723 385.872803,14.9865723 C385.111084,14.9865723 384.406128,15.1971436 383.757935,15.6182861 C383.109741,16.0394287 382.595215,16.5942383 382.214355,17.2827148 L382.214355,17.2827148 L382.049561,17.2827148 L381.555176,15.2172852 L379.017334,15.2172852 L379.017334,27.5 L382.368164,27.5 Z M390.915527,13.6901855 C391.523438,13.6901855 391.97937,13.5455322 392.283325,13.2562256 C392.58728,12.9669189 392.739258,12.5622559 392.739258,12.0422363 C392.739258,10.9509277 392.131348,10.4052734 390.915527,10.4052734 C389.699707,10.4052734 389.091797,10.9509277 389.091797,12.0422363 C389.091797,13.1408691 389.699707,13.6901855 390.915527,13.6901855 Z M392.585449,27.5 L392.585449,15.2172852 L389.234619,15.2172852 L389.234619,27.5 L392.585449,27.5 Z M404.648438,27.5 L404.648438,24.9401855 L398.913574,24.9401855 L404.450684,17.3925781 L404.450684,15.2172852 L395.288086,15.2172852 L395.288086,17.7770996 L400.638428,17.7770996 L394.94751,25.5224609 L394.94751,27.5 L404.648438,27.5 Z M410.064697,27.7197266 C411.02417,27.7197266 411.802368,27.5823975 412.399292,27.3077393 C412.996216,27.0330811 413.57666,26.5405273 414.140625,25.8300781 L414.140625,25.8300781 L414.228516,25.8300781 L414.876709,27.5 L417.216797,27.5 L417.216797,19.3151855 C417.216797,17.8503418 416.777344,16.7590332 415.898438,16.0412598 C415.019531,15.3234863 413.756104,14.9645996 412.108154,14.9645996 C410.386963,14.9645996 408.81958,15.3344727 407.406006,16.0742188 L407.406006,16.0742188 L408.515625,18.3374023 C409.841309,17.7441406 410.994873,17.4475098 411.976318,17.4475098 C413.250732,17.4475098 413.887939,18.0700684 413.887939,19.3151855 L413.887939,19.3151855 L413.887939,19.8535156 L411.756592,19.9194336 C409.918213,19.9853516 408.543091,20.3277588 407.631226,20.9466553 C406.71936,21.5655518 406.263428,22.5268555 406.263428,23.8305664 C406.263428,25.0756836 406.602173,26.0351563 407.279663,26.7089844 C407.957153,27.3828125 408.885498,27.7197266 410.064697,27.7197266 Z M411.328125,25.2697754 C410.244141,25.2697754 409.702148,24.7973633 409.702148,23.8525391 C409.702148,23.1933594 409.940186,22.7026367 410.41626,22.3803711 C410.892334,22.0581055 411.617432,21.8823242 412.591553,21.8530273 L412.591553,21.8530273 L413.887939,21.809082 L413.887939,22.8198242 C413.887939,23.5595703 413.655396,24.152832 413.190308,24.5996094 C412.72522,25.0463867 412.104492,25.2697754 411.328125,25.2697754 Z M424.874268,27.7197266 C426.090088,27.7197266 427.115479,27.532959 427.950439,27.1594238 L427.950439,27.1594238 L427.950439,24.6655273 C427.130127,24.921875 426.427002,25.0500488 425.841064,25.0500488 C425.401611,25.0500488 425.048218,24.9365234 424.780884,24.7094727 C424.51355,24.4824219 424.379883,24.1308594 424.379883,23.6547852 L424.379883,23.6547852 L424.379883,17.7331543 L427.818604,17.7331543 L427.818604,15.2172852 L424.379883,15.2172852 L424.379883,12.6025391 L422.237549,12.6025391 L421.270752,15.1953125 L419.425049,16.315918 L419.425049,17.7331543 L421.029053,17.7331543 L421.029053,23.6547852 C421.029053,25.0097656 421.334839,26.026001 421.946411,26.7034912 C422.557983,27.3809814 423.533936,27.7197266 424.874268,27.7197266 Z M432.114258,13.6901855 C432.722168,13.6901855 433.178101,13.5455322 433.482056,13.2562256 C433.786011,12.9669189 433.937988,12.5622559 433.937988,12.0422363 C433.937988,10.9509277 433.330078,10.4052734 432.114258,10.4052734 C430.898438,10.4052734 430.290527,10.9509277 430.290527,12.0422363 C430.290527,13.1408691 430.898438,13.6901855 432.114258,13.6901855 Z M433.78418,27.5 L433.78418,15.2172852 L430.43335,15.2172852 L430.43335,27.5 L433.78418,27.5 Z M442.474365,27.7197266 C444.356689,27.7197266 445.825195,27.1557617 446.879883,26.027832 C447.93457,24.8999023 448.461914,23.3361816 448.461914,21.3366699 C448.461914,20.0476074 448.220215,18.9233398 447.736816,17.9638672 C447.253418,17.0043945 446.561279,16.2683105 445.6604,15.7556152 C444.759521,15.2429199 443.719482,14.9865723 442.540283,14.9865723 C440.643311,14.9865723 439.171143,15.5432129 438.123779,16.6564941 C437.076416,17.7697754 436.552734,19.329834 436.552734,21.3366699 C436.552734,22.6257324 436.794434,23.7536621 437.277832,24.720459 C437.76123,25.6872559 438.453369,26.428833 439.354248,26.9451904 C440.255127,27.4615479 441.295166,27.7197266 442.474365,27.7197266 Z M442.518311,25.0280762 C441.617432,25.0280762 440.967407,24.7167969 440.568237,24.0942383 C440.169067,23.4716797 439.969482,22.5524902 439.969482,21.3366699 C439.969482,20.1135254 440.167236,19.1998291 440.562744,18.5955811 C440.958252,17.991333 441.602783,17.689209 442.496338,17.689209 C443.397217,17.689209 444.04541,17.9931641 444.440918,18.6010742 C444.836426,19.2089844 445.03418,20.1208496 445.03418,21.3366699 C445.03418,22.5598145 444.838257,23.480835 444.446411,24.0997314 C444.054565,24.7186279 443.411865,25.0280762 442.518311,25.0280762 Z M454.581299,27.5 L454.581299,21.7211914 C454.581299,20.2709961 454.790039,19.2327881 455.20752,18.6065674 C455.625,17.9803467 456.30249,17.6672363 457.23999,17.6672363 C457.928467,17.6672363 458.430176,17.8887939 458.745117,18.3319092 C459.060059,18.7750244 459.217529,19.4396973 459.217529,20.3259277 L459.217529,20.3259277 L459.217529,27.5 L462.568359,27.5 L462.568359,19.4909668 C462.568359,18.0334473 462.198486,16.918335 461.45874,16.1456299 C460.718994,15.3729248 459.63501,14.9865723 458.206787,14.9865723 C457.371826,14.9865723 456.626587,15.1385498 455.971069,15.4425049 C455.315552,15.74646 454.801025,16.1950684 454.42749,16.7883301 L454.42749,16.7883301 L454.240723,16.7883301 L453.790283,15.2172852 L451.230469,15.2172852 L451.230469,27.5 L454.581299,27.5 Z M475.477295,27.5 L475.477295,21.1499023 L480.926514,21.1499023 L480.926514,18.3703613 L475.477295,18.3703613 L475.477295,14.2285156 L481.333008,14.2285156 L481.333008,11.4379883 L472.126465,11.4379883 L472.126465,27.5 L475.477295,27.5 Z M489.385986,27.7197266 C491.268311,27.7197266 492.736816,27.1557617 493.791504,26.027832 C494.846191,24.8999023 495.373535,23.3361816 495.373535,21.3366699 C495.373535,20.0476074 495.131836,18.9233398 494.648438,17.9638672 C494.165039,17.0043945 493.4729,16.2683105 492.572021,15.7556152 C491.671143,15.2429199 490.631104,14.9865723 489.451904,14.9865723 C487.554932,14.9865723 486.082764,15.5432129 485.0354,16.6564941 C483.988037,17.7697754 483.464355,19.329834 483.464355,21.3366699 C483.464355,22.6257324 483.706055,23.7536621 484.189453,24.720459 C484.672852,25.6872559 485.36499,26.428833 486.265869,26.9451904 C487.166748,27.4615479 488.206787,27.7197266 489.385986,27.7197266 Z M489.429932,25.0280762 C488.529053,25.0280762 487.879028,24.7167969 487.479858,24.0942383 C487.080688,23.4716797 486.881104,22.5524902 486.881104,21.3366699 C486.881104,20.1135254 487.078857,19.1998291 487.474365,18.5955811 C487.869873,17.991333 488.514404,17.689209 489.407959,17.689209 C490.308838,17.689209 490.957031,17.9931641 491.352539,18.6010742 C491.748047,19.2089844 491.945801,20.1208496 491.945801,21.3366699 C491.945801,22.5598145 491.749878,23.480835 491.358032,24.0997314 C490.966187,24.7186279 490.323486,25.0280762 489.429932,25.0280762 Z M501.49292,27.5 L501.49292,21.2487793 C501.49292,20.2600098 501.791382,19.4909668 502.388306,18.9416504 C502.985229,18.392334 503.818359,18.1176758 504.887695,18.1176758 C505.275879,18.1176758 505.605469,18.1542969 505.876465,18.2275391 L505.876465,18.2275391 L506.12915,15.0854492 C505.828857,15.0195313 505.45166,14.9865723 504.997559,14.9865723 C504.23584,14.9865723 503.530884,15.1971436 502.88269,15.6182861 C502.234497,16.0394287 501.719971,16.5942383 501.339111,17.2827148 L501.339111,17.2827148 L501.174316,17.2827148 L500.679932,15.2172852 L498.14209,15.2172852 L498.14209,27.5 L501.49292,27.5 Z M511.710205,27.5 L511.710205,21.7211914 C511.710205,20.2783203 511.904297,19.2419434 512.29248,18.6120605 C512.680664,17.9821777 513.303223,17.6672363 514.160156,17.6672363 C514.797363,17.6672363 515.264282,17.8887939 515.560913,18.3319092 C515.857544,18.7750244 516.005859,19.4396973 516.005859,20.3259277 L516.005859,20.3259277 L516.005859,27.5 L519.356689,27.5 L519.356689,21.3366699 C519.356689,20.0622559 519.559937,19.1320801 519.966431,18.5461426 C520.372925,17.9602051 520.986328,17.6672363 521.806641,17.6672363 C522.443848,17.6672363 522.910767,17.8887939 523.207397,18.3319092 C523.504028,18.7750244 523.652344,19.4396973 523.652344,20.3259277 L523.652344,20.3259277 L523.652344,27.5 L527.01416,27.5 L527.01416,19.4909668 C527.01416,17.9162598 526.657104,16.7718506 525.942993,16.0577393 C525.228882,15.3436279 524.176025,14.9865723 522.784424,14.9865723 C521.97876,14.9865723 521.255493,15.144043 520.614624,15.4589844 C519.973755,15.7739258 519.488525,16.217041 519.158936,16.7883301 L519.158936,16.7883301 L518.862305,16.7883301 C518.210449,15.5871582 516.965332,14.9865723 515.126953,14.9865723 C514.321289,14.9865723 513.607178,15.145874 512.984619,15.4644775 C512.362061,15.7830811 511.885986,16.2243652 511.556396,16.7883301 L511.556396,16.7883301 L511.369629,16.7883301 L510.919189,15.2172852 L508.359375,15.2172852 L508.359375,27.5 L511.710205,27.5 Z" id="path-2"></path>
    </defs>
    <g id="Page-1" stroke="none" stroke-width="1" fill="none" fill-rule="evenodd">
        <g id="Artboard">
            <g id="TFW-logo">
                <g id="TFW-logo-desktop">
                    <g id="Group" transform="translate(67.500000, 4.166667)" fill-rule="nonzero">
                        <g id="Group-2">
                            <g id="COVID-19RESPONSE">
                                <use fill="#000000" xlink:href="#path-1"></use>
                                <use fill="#FFFFFF" xlink:href="#path-1"></use>
                            </g>
                            <g id="TemporaryForeignWorkerAuthorizationForm">
                                <use fill="#000000" xlink:href="#path-2"></use>
                                <use fill="#FFFFFF" xlink:href="#path-2"></use>
                            </g>
                        </g>
                    </g>
                    <g id="Logo" transform="translate(0.000000, 6.666667)" fill-rule="nonzero">
                        <path d="M5.986,22.6953333 C12.266,22.6953333 20.948,26.2353333 27.2526667,26.2353333 C31.748,26.2353333 36.1453333,25.0413333 38.632,23.2713333 C38.8062288,22.2170881 38.8954051,21.1505402 38.8990015,20.082 C38.9391469,13.2290768 35.3063794,6.87932285 29.3782286,3.4411224 C23.4500777,0.00292194956 16.134589,0.00292194956 10.2064381,3.4411224 C4.27828723,6.87932285 0.645519725,13.2290768 0.685665191,20.082 C0.68280855,21.1414484 0.773159313,22.1991101 0.956,23.2426667 C2.61347501,22.9137423 4.29657079,22.7305982 5.986,22.6953333 Z" id="Path_350" fill="#FFFFFF"></path>
                        <g id="Group_15" transform="translate(0.872000, 0.098667)" fill="#FDB913">
                            <polygon id="Path_351" points="31.2726667 15.558 32.0173333 15.8673333 33.7033333 14.7013333"></polygon>
                            <path d="M3.10466667,14.252 L1.124,13.5493333 L1.22266667,13.3106667 L3.45666667,14.0553333 L3.47066667,14.0553333 L3.766,13.8866667 L3.87866667,13.8166667 L1.43266667,12.7766667 L1.53133333,12.524 L6.998,14.7153333 L7.18066667,14.6453333 L1.77,12.018 L1.89666667,11.7653333 L7.61466667,14.432 L7.69866667,14.39 L2.14933333,11.2433333 L2.262,11.0046667 L10.2666667,15.362 C10.3366667,15.2353333 10.4666667,15.0246667 10.5333333,14.8953333 C8.63034348,13.1168596 6.63253549,11.4426356 4.54866667,9.88 C6.72781622,11.3046675 8.98366691,12.6084139 11.306,13.7853333 C11.4326667,13.6306667 11.5306667,13.5046667 11.6573333,13.364 L4.83266667,7.354 L5.01533333,7.17133333 L10.5366667,11.878 L5.42266667,6.75 L5.62266667,6.55 L11.356,12.0993333 L6.01266667,6.174 L6.22333333,5.99133333 L11.1566667,11.274 L6.64533333,5.6 L6.84533333,5.41733333 L12.6193333,12.442 C12.774,12.3153333 12.886,12.2173333 13.0546667,12.0906667 C11.9634105,9.73923647 10.7433366,7.44976182 9.4,5.23266667 C10.8812273,7.35862497 12.4757536,9.4033574 14.1766667,11.358 C14.3453333,11.2593333 14.514,11.1753333 14.6826667,11.0913333 L14.6546667,11.0773333 L10.5926667,3 L10.8313333,2.88733333 L14.1893333,9.308 L11.3653333,2.66133333 L11.618,2.54866667 L14.8666667,9.84066667 L12.124,2.33866667 L12.3766667,2.24 L14.9766667,8.99733333 L12.9393333,2.04333333 L13.192,1.95933333 L15.8893333,10.5853333 L15.8893333,10.6133333 L15.8893333,10.6133333 L16.4373333,10.4446667 C16.3008477,7.87058762 16.0289157,5.30548089 15.6226667,2.76 C16.194761,5.2738973 16.9029142,7.75488155 17.744,10.192 C17.9266667,10.164 18.1233333,10.15 18.32,10.136 L18.32,10.122 L18.348,10.122 L18.334,10.108 L17.5753333,1.088 L17.842,1.074 L18.5446667,8.29533333 L18.418,1.06 L18.6986667,1.046 L18.9793333,9.026 L19.2613333,1.046 L19.542,1.06 L19.4153333,8.29533333 L20.118,1.074 L20.3846667,1.088 L19.6513333,10.0933333 L19.6373333,10.1073333 L19.6513333,10.1073333 C19.834,10.1213333 20.0306667,10.1353333 20.2133333,10.1633333 C21.0564444,7.73153372 21.7657289,5.25538069 22.338,2.746 C21.9311902,5.28671021 21.6592537,7.84718652 21.5233333,10.4166667 C21.7097259,10.459981 21.8928438,10.516342 22.0713333,10.5853333 L24.7686667,1.98533333 L25.0213333,2.06933333 L22.97,9.026 L25.5686667,2.26666667 L25.8213333,2.36533333 L23.0966667,9.86666667 L26.3413333,2.57733333 L26.594,2.69 L23.7273333,9.34933333 L27.0853333,2.92866667 L27.324,3.04133333 L23.2933333,11.0906667 L23.2933333,11.0906667 C23.462,11.1746667 23.6166667,11.2593333 23.7853333,11.3433333 C25.4768084,9.3982395 27.0617922,7.36304203 28.5333333,5.24666667 C27.1967329,7.44951226 25.9820179,9.72404268 24.8946667,12.06 C25.0505732,12.1740398 25.2005468,12.2959768 25.344,12.4253333 L31.048,5.47133333 L31.248,5.654 L26.7333333,11.33 L31.6666667,6.04733333 L31.8773333,6.23 L26.5386667,12.1586667 L32.272,6.60933333 L32.472,6.80933333 L27.3533333,11.92 L32.8746667,7.21333333 L33.0573333,7.396 L26.2993333,13.3386667 L26.2993333,13.3386667 C26.412,13.4653333 26.524,13.6053333 26.6366667,13.746 C28.9404804,12.5778381 31.1776974,11.2827361 33.338,9.86666667 C31.2709796,11.4187215 29.2873308,13.0788091 27.3953333,14.84 C27.4793333,14.9806667 27.606,15.2193333 27.6906667,15.36 L35.586,11.0613333 L35.6986667,11.3 L29.3906667,14.8826667 L35.9513333,11.834 L36.078,12.0866667 L29.966,15.0666667 L30.0786667,15.1086667 L36.288,12.594 L36.3866667,12.8466667 L30.6126667,15.3053333 L30.7253333,15.3473333 L34.574,14.0666667 L35.15,13.6593333 L35.35,13.8 L36.6166667,13.3786667 L36.7153333,13.6173333 L35.614,14 L37.2,15.2073333 L37.706,15.488 C35.6009275,6.70575731 27.6962836,0.550868585 18.6659665,0.662627959 C9.63564944,0.774387333 1.88574926,7.12301699 -0.00133333333,15.9546667 C0.0266666667,15.9406667 0.0406666667,15.9266667 0.0686666667,15.9266667 L0.307333333,15.828 L0.448,15.758 L3.10466667,14.252 Z" id="Path_352"></path>
                        </g>
                        <path d="M0.76,23.6373333 C2.48751358,23.2993193 4.24031153,23.1066453 6,23.0613333 C12.28,23.0613333 20.962,26.6013333 27.2666667,26.6013333 C31.8886667,26.6013333 36.4,25.3346667 38.8566667,23.4826667 C39.0549732,22.3696568 39.1538077,21.2412033 39.1520244,20.1106667 C39.1538041,18.5868788 38.9747745,17.0682604 38.6186667,15.5866667 L35.9946667,14.126 L32.918,16.2893333 L30.8386667,15.4893333 C30.136,15.8406667 25.8093333,18.7346667 25.8093333,18.7346667 L24.1513333,17.526 L22.37,17.1746667 L19.996,15.4466667 L17.2706667,17.3133333 C17.2706667,17.3133333 14.222,19.0833333 14.124,19.0833333 C14.026,19.0833333 10.4573333,16.2593333 10.4573333,16.2593333 L8.78533333,14.5313333 C8.50466667,14.714 7.38066667,15.22 7.38066667,15.22 L7.32466667,15.234 L6.23666667,14.8986667 L4.918,14.196 L0.942666667,16.0226667 C0.914666667,16.0366667 0.900666667,16.0506667 0.872666667,16.0506667 C0.3324961,18.5470754 0.294197701,21.1259853 0.76,23.6373333 L0.76,23.6373333 Z" id="Path_353" fill="#004B8D"></path>
                    </g>
                    <rect id="Rectangle" fill="#FCBA19" x="53.3333333" y="0" width="1" height="40"></rect>
                </g>
            </g>
        </g>
    </g>
</svg>