<?xml version="1.0" encoding="UTF-8"?>
<svg width="218px" height="40px" viewBox="0 0 218 40" version="1.1" xmlns="http://www.w3.org/2000/svg" xmlns:xlink="http://www.w3.org/1999/xlink">
    <!-- Generator: Sketch 64 (93537) - https://sketch.com -->
    <title>TFW-logo-mobile</title>
    <desc>Created with Sketch.</desc>
    <defs>
        <path d="M4.01757812,18.5 L4.01757812,12.0332031 L6.14990234,12.0332031 L6.14990234,10.6474609 L0.220214844,10.6474609 L0.220214844,12.0332031 L2.35253906,12.0332031 L2.35253906,18.5 L4.01757812,18.5 Z M9.94726562,18.6074219 C10.4163411,18.6074219 10.8138021,18.5725098 11.1396484,18.5026855 C11.4654948,18.4328613 11.7716471,18.3263346 12.0581055,18.1831055 L12.0581055,18.1831055 L12.0581055,16.9155273 C11.707194,17.0802409 11.3706055,17.2001953 11.0483398,17.2753906 C10.7260742,17.3505859 10.3841146,17.3881836 10.0224609,17.3881836 C9.55696615,17.3881836 9.1953125,17.257487 8.9375,16.9960937 C8.6796875,16.7347005 8.54182943,16.3712565 8.52392578,15.9057617 L8.52392578,15.9057617 L12.3964844,15.9057617 L12.3964844,15.1108398 C12.3964844,14.2586263 12.1601562,13.5908203 11.6875,13.1074219 C11.2148438,12.6240234 10.5541992,12.3823242 9.70556641,12.3823242 C8.81754557,12.3823242 8.12198893,12.6571452 7.61889648,13.2067871 C7.11580404,13.756429 6.86425781,14.5343424 6.86425781,15.5405273 C6.86425781,16.5180664 7.13639323,17.2736003 7.68066406,17.8071289 C8.2249349,18.3406576 8.98046875,18.6074219 9.94726562,18.6074219 Z M10.8603516,14.8154297 L8.56152344,14.8154297 C8.59016927,14.4108073 8.70296224,14.0983887 8.89990234,13.8781738 C9.09684245,13.657959 9.36897786,13.5478516 9.71630859,13.5478516 C10.0636393,13.5478516 10.3393555,13.657959 10.543457,13.8781738 C10.7475586,14.0983887 10.8531901,14.4108073 10.8603516,14.8154297 L10.8603516,14.8154297 Z M15.3666992,18.5 L15.3666992,15.6748047 C15.3666992,14.969401 15.4615885,14.4627279 15.6513672,14.1547852 C15.8411458,13.8468424 16.1455078,13.6928711 16.5644531,13.6928711 C16.8759766,13.6928711 17.104248,13.8011882 17.2492676,14.0178223 C17.3942871,14.2344564 17.4667969,14.5594076 17.4667969,14.9926758 L17.4667969,14.9926758 L17.4667969,18.5 L19.1049805,18.5 L19.1049805,15.4868164 C19.1049805,14.8637695 19.2043457,14.4090169 19.4030762,14.1225586 C19.6018066,13.8361003 19.9016927,13.6928711 20.3027344,13.6928711 C20.6142578,13.6928711 20.8425293,13.8011882 20.9875488,14.0178223 C21.1325684,14.2344564 21.2050781,14.5594076 21.2050781,14.9926758 L21.2050781,14.9926758 L21.2050781,18.5 L22.8486328,18.5 L22.8486328,14.5844727 C22.8486328,13.8146159 22.6740723,13.255127 22.3249512,12.9060059 C21.9758301,12.5568848 21.4611003,12.3823242 20.7807617,12.3823242 C20.3868815,12.3823242 20.0332845,12.4593099 19.7199707,12.6132812 C19.4066569,12.7672526 19.1694336,12.9838867 19.0083008,13.2631836 L19.0083008,13.2631836 L18.8632812,13.2631836 C18.5445964,12.675944 17.9358724,12.3823242 17.0371094,12.3823242 C16.6432292,12.3823242 16.2941081,12.4602051 15.9897461,12.6159668 C15.6853841,12.7717285 15.4526367,12.9874674 15.2915039,13.2631836 L15.2915039,13.2631836 L15.2001953,13.2631836 L14.9799805,12.4951172 L13.7285156,12.4951172 L13.7285156,18.5 L15.3666992,18.5 Z M26.1679688,21.1425781 L26.1679688,18.7094727 C26.1679688,18.6306966 26.1393229,18.3406576 26.0820312,17.8393555 L26.0820312,17.8393555 L26.1679688,17.8393555 C26.5690104,18.3513997 27.1222331,18.6074219 27.8276367,18.6074219 C28.2967122,18.6074219 28.7049154,18.4838867 29.0522461,18.2368164 C29.3995768,17.9897461 29.6672363,17.6298828 29.8552246,17.1572266 C30.0432129,16.6845703 30.137207,16.1277669 30.137207,15.4868164 C30.137207,14.5128581 29.9366862,13.7519531 29.5356445,13.2041016 C29.1346029,12.65625 28.5795898,12.3823242 27.8706055,12.3823242 C27.1186523,12.3823242 26.5511068,12.6795247 26.1679688,13.2739258 L26.1679688,13.2739258 L26.0927734,13.2739258 L25.8618164,12.4951172 L24.5297852,12.4951172 L24.5297852,21.1425781 L26.1679688,21.1425781 Z M27.3657227,17.2807617 C26.9503581,17.2807617 26.6468913,17.1411133 26.4553223,16.8618164 C26.2637533,16.5825195 26.1679688,16.1206055 26.1679688,15.4760742 L26.1679688,15.4760742 L26.1679688,15.2988281 C26.1751302,14.7259115 26.2718099,14.3150228 26.4580078,14.0661621 C26.6442057,13.8173014 26.9396159,13.6928711 27.3442383,13.6928711 C27.730957,13.6928711 28.0147298,13.8405762 28.1955566,14.1359863 C28.3763835,14.4313965 28.4667969,14.8745117 28.4667969,15.465332 C28.4667969,16.6756185 28.0997721,17.2807617 27.3657227,17.2807617 Z M34.0205078,18.6074219 C34.9407552,18.6074219 35.6586914,18.3317057 36.1743164,17.7802734 C36.6899414,17.2288411 36.9477539,16.4643555 36.9477539,15.4868164 C36.9477539,14.8566081 36.8295898,14.3069661 36.5932617,13.8378906 C36.3569336,13.3688151 36.0185547,13.0089518 35.578125,12.7583008 C35.1376953,12.5076497 34.6292318,12.3823242 34.0527344,12.3823242 C33.1253255,12.3823242 32.405599,12.6544596 31.8935547,13.1987305 C31.3815104,13.7430013 31.1254883,14.5056966 31.1254883,15.4868164 C31.1254883,16.1170247 31.2436523,16.668457 31.4799805,17.1411133 C31.7163086,17.6137695 32.0546875,17.9763184 32.4951172,18.2287598 C32.9355469,18.4812012 33.4440104,18.6074219 34.0205078,18.6074219 Z M34.0419922,17.2915039 C33.6015625,17.2915039 33.2837728,17.1393229 33.088623,16.8349609 C32.8934733,16.530599 32.7958984,16.0812174 32.7958984,15.4868164 C32.7958984,14.8888346 32.8925781,14.4421387 33.0859375,14.1467285 C33.2792969,13.8513184 33.594401,13.7036133 34.03125,13.7036133 C34.4716797,13.7036133 34.7885742,13.8522135 34.9819336,14.1494141 C35.175293,14.4466146 35.2719727,14.8924154 35.2719727,15.4868164 C35.2719727,16.0847982 35.1761882,16.5350749 34.9846191,16.8376465 C34.7930501,17.1402181 34.4788411,17.2915039 34.0419922,17.2915039 Z M39.9394531,18.5 L39.9394531,15.4438477 C39.9394531,14.9604492 40.0853678,14.5844727 40.3771973,14.315918 C40.6690267,14.0473633 41.0763346,13.9130859 41.5991211,13.9130859 C41.7888997,13.9130859 41.9500326,13.9309896 42.0825195,13.9667969 L42.0825195,13.9667969 L42.2060547,12.4306641 C42.0592448,12.3984375 41.8748372,12.3823242 41.652832,12.3823242 C41.2804362,12.3823242 40.935791,12.4852702 40.6188965,12.6911621 C40.302002,12.897054 40.0504557,13.1682943 39.8642578,13.5048828 L39.8642578,13.5048828 L39.7836914,13.5048828 L39.5419922,12.4951172 L38.3012695,12.4951172 L38.3012695,18.5 L39.9394531,18.5 Z M44.7573242,18.6074219 C45.2263997,18.6074219 45.6068522,18.5402832 45.8986816,18.4060059 C46.1905111,18.2717285 46.4742839,18.0309245 46.75,17.6835937 L46.75,17.6835937 L46.7929688,17.6835937 L47.1098633,18.5 L48.2539062,18.5 L48.2539062,14.4985352 C48.2539062,13.7823893 48.0390625,13.2488607 47.609375,12.8979492 C47.1796875,12.5470378 46.5620117,12.371582 45.7563477,12.371582 C44.9148763,12.371582 44.1486003,12.5524089 43.4575195,12.9140625 L43.4575195,12.9140625 L44,14.0205078 C44.648112,13.7304687 45.2120768,13.5854492 45.6918945,13.5854492 C46.3149414,13.5854492 46.6264648,13.8898112 46.6264648,14.4985352 L46.6264648,14.4985352 L46.6264648,14.7617187 L45.5844727,14.7939453 C44.6857096,14.8261719 44.0134277,14.993571 43.567627,15.2961426 C43.1218262,15.5987142 42.8989258,16.0686849 42.8989258,16.7060547 C42.8989258,17.3147786 43.0645345,17.7838542 43.395752,18.1132812 C43.7269694,18.4427083 44.1808268,18.6074219 44.7573242,18.6074219 Z M45.375,17.409668 C44.8450521,17.409668 44.5800781,17.1787109 44.5800781,16.7167969 C44.5800781,16.3945312 44.6964518,16.1546224 44.9291992,15.9970703 C45.1619466,15.8395182 45.5164388,15.7535807 45.9926758,15.7392578 L45.9926758,15.7392578 L46.6264648,15.7177734 L46.6264648,16.2119141 C46.6264648,16.5735677 46.5127767,16.8636068 46.2854004,17.0820312 C46.0580241,17.3004557 45.7545573,17.409668 45.375,17.409668 Z M51.5786133,18.5 L51.5786133,15.4438477 C51.5786133,14.9604492 51.724528,14.5844727 52.0163574,14.315918 C52.3081868,14.0473633 52.7154948,13.9130859 53.2382812,13.9130859 C53.4280599,13.9130859 53.5891927,13.9309896 53.7216797,13.9667969 L53.7216797,13.9667969 L53.8452148,12.4306641 C53.6984049,12.3984375 53.5139974,12.3823242 53.2919922,12.3823242 C52.9195964,12.3823242 52.5749512,12.4852702 52.2580566,12.6911621 C51.9411621,12.897054 51.6896159,13.1682943 51.503418,13.5048828 L51.503418,13.5048828 L51.4228516,13.5048828 L51.1811523,12.4951172 L49.9404297,12.4951172 L49.9404297,18.5 L51.5786133,18.5 Z M55.284668,21.1425781 C55.8611654,21.1425781 56.365153,20.9868164 56.7966309,20.675293 C57.2281087,20.3637695 57.5602214,19.894694 57.7929688,19.2680664 L57.7929688,19.2680664 L60.3334961,12.4951172 L58.5771484,12.4951172 L57.465332,15.8735352 C57.3507487,16.1993815 57.273763,16.5467122 57.234375,16.9155273 L57.234375,16.9155273 L57.2021484,16.9155273 C57.1663411,16.5144857 57.1000977,16.1671549 57.003418,15.8735352 L57.003418,15.8735352 L55.8701172,12.4951172 L54.0761719,12.4951172 L56.4609375,18.4570312 L56.3642578,18.7524414 C56.242513,19.1105143 56.0733236,19.3781738 55.8566895,19.5554199 C55.6400553,19.732666 55.3867188,19.8212891 55.0966797,19.8212891 C54.8639323,19.8212891 54.6490885,19.7980143 54.4521484,19.7514648 L54.4521484,19.7514648 L54.4521484,21.0512695 C54.7242839,21.1121419 55.0017904,21.1425781 55.284668,21.1425781 Z M65.8173828,18.5 L65.8173828,15.3955078 L68.4814453,15.3955078 L68.4814453,14.0366211 L65.8173828,14.0366211 L65.8173828,12.0117187 L68.6801758,12.0117187 L68.6801758,10.6474609 L64.1791992,10.6474609 L64.1791992,18.5 L65.8173828,18.5 Z M72.6171875,18.6074219 C73.5374349,18.6074219 74.2553711,18.3317057 74.7709961,17.7802734 C75.2866211,17.2288411 75.5444336,16.4643555 75.5444336,15.4868164 C75.5444336,14.8566081 75.4262695,14.3069661 75.1899414,13.8378906 C74.9536133,13.3688151 74.6152344,13.0089518 74.1748047,12.7583008 C73.734375,12.5076497 73.2259115,12.3823242 72.6494141,12.3823242 C71.7220052,12.3823242 71.0022786,12.6544596 70.4902344,13.1987305 C69.9781901,13.7430013 69.722168,14.5056966 69.722168,15.4868164 C69.722168,16.1170247 69.840332,16.668457 70.0766602,17.1411133 C70.3129883,17.6137695 70.6513672,17.9763184 71.0917969,18.2287598 C71.5322266,18.4812012 72.0406901,18.6074219 72.6171875,18.6074219 Z M72.6386719,17.2915039 C72.1982422,17.2915039 71.8804525,17.1393229 71.6853027,16.8349609 C71.490153,16.530599 71.3925781,16.0812174 71.3925781,15.4868164 C71.3925781,14.8888346 71.4892578,14.4421387 71.6826172,14.1467285 C71.8759766,13.8513184 72.1910807,13.7036133 72.6279297,13.7036133 C73.0683594,13.7036133 73.3852539,13.8522135 73.5786133,14.1494141 C73.7719727,14.4466146 73.8686523,14.8924154 73.8686523,15.4868164 C73.8686523,16.0847982 73.7728678,16.5350749 73.5812988,16.8376465 C73.3897298,17.1402181 73.0755208,17.2915039 72.6386719,17.2915039 Z M78.5361328,18.5 L78.5361328,15.4438477 C78.5361328,14.9604492 78.6820475,14.5844727 78.973877,14.315918 C79.2657064,14.0473633 79.6730143,13.9130859 80.1958008,13.9130859 C80.3855794,13.9130859 80.5467122,13.9309896 80.6791992,13.9667969 L80.6791992,13.9667969 L80.8027344,12.4306641 C80.6559245,12.3984375 80.4715169,12.3823242 80.2495117,12.3823242 C79.8771159,12.3823242 79.5324707,12.4852702 79.2155762,12.6911621 C78.8986816,12.897054 78.6471354,13.1682943 78.4609375,13.5048828 L78.4609375,13.5048828 L78.3803711,13.5048828 L78.1386719,12.4951172 L76.8979492,12.4951172 L76.8979492,18.5 L78.5361328,18.5 Z M84.6108398,18.6074219 C85.0799154,18.6074219 85.4773763,18.5725098 85.8032227,18.5026855 C86.129069,18.4328613 86.4352214,18.3263346 86.7216797,18.1831055 L86.7216797,18.1831055 L86.7216797,16.9155273 C86.3707682,17.0802409 86.0341797,17.2001953 85.7119141,17.2753906 C85.3896484,17.3505859 85.0476888,17.3881836 84.6860352,17.3881836 C84.2205404,17.3881836 83.8588867,17.257487 83.6010742,16.9960937 C83.3432617,16.7347005 83.2054036,16.3712565 83.1875,15.9057617 L83.1875,15.9057617 L87.0600586,15.9057617 L87.0600586,15.1108398 C87.0600586,14.2586263 86.8237305,13.5908203 86.3510742,13.1074219 C85.878418,12.6240234 85.2177734,12.3823242 84.3691406,12.3823242 C83.4811198,12.3823242 82.7855632,12.6571452 82.2824707,13.2067871 C81.7793783,13.756429 81.527832,14.5343424 81.527832,15.5405273 C81.527832,16.5180664 81.7999674,17.2736003 82.3442383,17.8071289 C82.8885091,18.3406576 83.644043,18.6074219 84.6108398,18.6074219 Z M85.5239258,14.8154297 L83.2250977,14.8154297 C83.2537435,14.4108073 83.3665365,14.0983887 83.5634766,13.8781738 C83.7604167,13.657959 84.0325521,13.5478516 84.3798828,13.5478516 C84.7272135,13.5478516 85.0029297,13.657959 85.2070312,13.8781738 C85.4111328,14.0983887 85.5167643,14.4108073 85.5239258,14.8154297 L85.5239258,14.8154297 Z M89.2138672,11.7485352 C89.5110677,11.7485352 89.7339681,11.6778158 89.8825684,11.536377 C90.0311686,11.3949382 90.1054688,11.1971029 90.1054688,10.9428711 C90.1054688,10.4093424 89.8082682,10.1425781 89.2138672,10.1425781 C88.6194661,10.1425781 88.3222656,10.4093424 88.3222656,10.9428711 C88.3222656,11.4799805 88.6194661,11.7485352 89.2138672,11.7485352 Z M90.0302734,18.5 L90.0302734,12.4951172 L88.3920898,12.4951172 L88.3920898,18.5 L90.0302734,18.5 Z M93.5053711,21.1425781 C94.6010742,21.1425781 95.4416504,20.9492187 96.0270996,20.5625 C96.6125488,20.1757812 96.9052734,19.6315104 96.9052734,18.9296875 C96.9052734,18.3818359 96.7325033,17.9664714 96.3869629,17.6835937 C96.0414225,17.4007161 95.5392253,17.2592773 94.8803711,17.2592773 L94.8803711,17.2592773 L93.8598633,17.2592773 C93.2583008,17.2592773 92.9575195,17.1411133 92.9575195,16.9047852 C92.9575195,16.7472331 93.0416667,16.6040039 93.2099609,16.4750977 L93.2099609,16.4750977 L93.4516602,16.5019531 L93.7470703,16.5180664 C94.5455729,16.5180664 95.169515,16.3381348 95.6188965,15.9782715 C96.068278,15.6184082 96.2929688,15.1162109 96.2929688,14.4716797 C96.2929688,14.1386719 96.2070312,13.8378906 96.0351562,13.5693359 L96.0351562,13.5693359 L96.9750977,13.3276367 L96.9750977,12.4951172 L94.8803711,12.4951172 C94.815918,12.4807943 94.6682129,12.4584147 94.4372559,12.4279785 C94.2062988,12.3975423 94.0066732,12.3823242 93.8383789,12.3823242 C93.0470378,12.3823242 92.4383138,12.5613607 92.012207,12.9194336 C91.5861003,13.2775065 91.3730469,13.7841797 91.3730469,14.4394531 C91.3730469,14.8476562 91.4652507,15.2021484 91.6496582,15.5029297 C91.8340658,15.8037109 92.0838216,16.0221354 92.3989258,16.1582031 C92.1482747,16.305013 91.9567057,16.4545085 91.8242188,16.6066895 C91.6917318,16.7588704 91.6254883,16.9495443 91.6254883,17.1787109 C91.6254883,17.3613281 91.688151,17.5340983 91.8134766,17.6970215 C91.9388021,17.8599447 92.085612,17.9772135 92.2539062,18.0488281 C91.8170573,18.1526693 91.4858398,18.3263346 91.2602539,18.5698242 C91.034668,18.8133138 90.921875,19.1158854 90.921875,19.4775391 C90.921875,20.0039062 91.142985,20.4130046 91.5852051,20.704834 C92.0274251,20.9966634 92.6674805,21.1425781 93.5053711,21.1425781 Z M93.8383789,15.519043 C93.5340169,15.519043 93.3075358,15.4241536 93.1589355,15.234375 C93.0103353,15.0445964 92.9360352,14.7867839 92.9360352,14.4609375 C92.9360352,13.7376302 93.2368164,13.3759766 93.8383789,13.3759766 C94.4327799,13.3759766 94.7299805,13.7376302 94.7299805,14.4609375 C94.7299805,14.7867839 94.6583659,15.0445964 94.5151367,15.234375 C94.3719076,15.4241536 94.1463216,15.519043 93.8383789,15.519043 Z M93.5751953,20.0737305 C93.1848958,20.0737305 92.881429,20.0092773 92.6647949,19.8803711 C92.4481608,19.7514648 92.3398438,19.5742187 92.3398438,19.3486328 C92.3398438,19.1158854 92.4409993,18.9287923 92.6433105,18.7873535 C92.8456217,18.6459147 93.097168,18.5751953 93.3979492,18.5751953 L93.3979492,18.5751953 L94.246582,18.5751953 C94.6583659,18.5751953 94.9627279,18.6181641 95.159668,18.7041016 C95.3566081,18.7900391 95.4550781,18.9458008 95.4550781,19.1713867 C95.4550781,19.4506836 95.2885742,19.6708984 94.9555664,19.8320312 C94.6225586,19.9931641 94.1624349,20.0737305 93.5751953,20.0737305 Z M99.6015625,18.5 L99.6015625,15.6748047 C99.6015625,14.9658203 99.7036133,14.458252 99.9077148,14.1520996 C100.111816,13.8459473 100.443034,13.6928711 100.901367,13.6928711 C101.237956,13.6928711 101.483236,13.8011882 101.637207,14.0178223 C101.791178,14.2344564 101.868164,14.5594076 101.868164,14.9926758 L101.868164,14.9926758 L101.868164,18.5 L103.506348,18.5 L103.506348,14.5844727 C103.506348,13.8719076 103.325521,13.3267415 102.963867,12.9489746 C102.602214,12.5712077 102.072266,12.3823242 101.374023,12.3823242 C100.96582,12.3823242 100.601481,12.4566243 100.281006,12.6052246 C99.9605306,12.7538249 99.7089844,12.9731445 99.5263672,13.2631836 L99.5263672,13.2631836 L99.4350586,13.2631836 L99.2148438,12.4951172 L97.9633789,12.4951172 L97.9633789,18.5 L99.6015625,18.5 Z M3.89404297,31.5 L4.95214844,27.3857422 C4.99869792,27.203125 5.06494141,26.8978678 5.15087891,26.4699707 L5.18573621,26.2937659 C5.2515047,25.9557159 5.29359654,25.7038225 5.31201172,25.5380859 C5.32633464,25.695638 5.38094076,26.0044759 5.47583008,26.4645996 C5.5707194,26.9247233 5.63785807,27.2281901 5.67724609,27.375 L5.67724609,27.375 L6.74072266,31.5 L8.63671875,31.5 L10.6347656,23.6474609 L8.99658203,23.6474609 L7.99755859,27.9335937 C7.93310547,28.1914062 7.86149089,28.52889 7.78271484,28.9460449 C7.7039388,29.3631999 7.64664714,29.7114258 7.61083984,29.9907227 C7.57145182,29.7006836 7.51416016,29.3533529 7.43896484,28.9487305 C7.36376953,28.5441081 7.30110677,28.2433268 7.25097656,28.0463867 L7.25097656,28.0463867 L6.10693359,23.6474609 L4.53320312,23.6474609 L3.38916016,28.0463867 C3.3211263,28.2827148 3.24861654,28.6148275 3.17163086,29.0427246 C3.09464518,29.4706217 3.04541016,29.7866211 3.02392578,29.9907227 C2.94514974,29.4106445 2.81803385,28.7249349 2.64257812,27.9335937 L2.64257812,27.9335937 L1.63818359,23.6474609 L0,23.6474609 L2.00341797,31.5 L3.89404297,31.5 Z M14.0239258,31.6074219 C14.9441732,31.6074219 15.6621094,31.3317057 16.1777344,30.7802734 C16.6933594,30.2288411 16.9511719,29.4643555 16.9511719,28.4868164 C16.9511719,27.8566081 16.8330078,27.3069661 16.5966797,26.8378906 C16.3603516,26.3688151 16.0219727,26.0089518 15.581543,25.7583008 C15.1411133,25.5076497 14.6326497,25.3823242 14.0561523,25.3823242 C13.1287435,25.3823242 12.4090169,25.6544596 11.8969727,26.1987305 C11.3849284,26.7430013 11.1289062,27.5056966 11.1289062,28.4868164 C11.1289062,29.1170247 11.2470703,29.668457 11.4833984,30.1411133 C11.7197266,30.6137695 12.0581055,30.9763184 12.4985352,31.2287598 C12.9389648,31.4812012 13.4474284,31.6074219 14.0239258,31.6074219 Z M14.0454102,30.2915039 C13.6049805,30.2915039 13.2871908,30.1393229 13.092041,29.8349609 C12.8968913,29.530599 12.7993164,29.0812174 12.7993164,28.4868164 C12.7993164,27.8888346 12.8959961,27.4421387 13.0893555,27.1467285 C13.2827148,26.8513184 13.597819,26.7036133 14.034668,26.7036133 C14.4750977,26.7036133 14.7919922,26.8522135 14.9853516,27.1494141 C15.1787109,27.4466146 15.2753906,27.8924154 15.2753906,28.4868164 C15.2753906,29.0847982 15.1796061,29.5350749 14.9880371,29.8376465 C14.7964681,30.1402181 14.4822591,30.2915039 14.0454102,30.2915039 Z M19.9428711,31.5 L19.9428711,28.4438477 C19.9428711,27.9604492 20.0887858,27.5844727 20.3806152,27.315918 C20.6724447,27.0473633 21.0797526,26.9130859 21.6025391,26.9130859 C21.7923177,26.9130859 21.9534505,26.9309896 22.0859375,26.9667969 L22.0859375,26.9667969 L22.2094727,25.4306641 C22.0626628,25.3984375 21.8782552,25.3823242 21.65625,25.3823242 C21.2838542,25.3823242 20.939209,25.4852702 20.6223145,25.6911621 C20.3054199,25.897054 20.0538737,26.1682943 19.8676758,26.5048828 L19.8676758,26.5048828 L19.7871094,26.5048828 L19.5454102,25.4951172 L18.3046875,25.4951172 L18.3046875,31.5 L19.9428711,31.5 Z M24.9379883,31.5 L24.9379883,29.6308594 L25.6416016,29.0668945 L27.3710938,31.5 L29.2617188,31.5 L26.7319336,28.1000977 L29.1166992,25.4951172 L27.269043,25.4951172 L25.5878906,27.3212891 L24.8735352,28.234375 L24.8520508,28.234375 L24.9379883,26.8701172 L24.9379883,23.1425781 L23.2998047,23.1425781 L23.2998047,31.5 L24.9379883,31.5 Z M32.8388672,31.6074219 C33.3079427,31.6074219 33.7054036,31.5725098 34.03125,31.5026855 C34.3570964,31.4328613 34.6632487,31.3263346 34.949707,31.1831055 L34.949707,31.1831055 L34.949707,29.9155273 C34.5987956,30.0802409 34.262207,30.2001953 33.9399414,30.2753906 C33.6176758,30.3505859 33.2757161,30.3881836 32.9140625,30.3881836 C32.4485677,30.3881836 32.0869141,30.257487 31.8291016,29.9960937 C31.5712891,29.7347005 31.433431,29.3712565 31.4155273,28.9057617 L31.4155273,28.9057617 L35.2880859,28.9057617 L35.2880859,28.1108398 C35.2880859,27.2586263 35.0517578,26.5908203 34.5791016,26.1074219 C34.1064453,25.6240234 33.4458008,25.3823242 32.597168,25.3823242 C31.7091471,25.3823242 31.0135905,25.6571452 30.510498,26.2067871 C30.0074056,26.756429 29.7558594,27.5343424 29.7558594,28.5405273 C29.7558594,29.5180664 30.0279948,30.2736003 30.5722656,30.8071289 C31.1165365,31.3406576 31.8720703,31.6074219 32.8388672,31.6074219 Z M33.7519531,27.8154297 L31.453125,27.8154297 C31.4817708,27.4108073 31.5945638,27.0983887 31.7915039,26.8781738 C31.988444,26.657959 32.2605794,26.5478516 32.6079102,26.5478516 C32.9552409,26.5478516 33.230957,26.657959 33.4350586,26.8781738 C33.6391602,27.0983887 33.7447917,27.4108073 33.7519531,27.8154297 L33.7519531,27.8154297 Z M38.2583008,31.5 L38.2583008,28.4438477 C38.2583008,27.9604492 38.4042155,27.5844727 38.6960449,27.315918 C38.9878743,27.0473633 39.3951823,26.9130859 39.9179688,26.9130859 C40.1077474,26.9130859 40.2688802,26.9309896 40.4013672,26.9667969 L40.4013672,26.9667969 L40.5249023,25.4306641 C40.3780924,25.3984375 40.1936849,25.3823242 39.9716797,25.3823242 C39.5992839,25.3823242 39.2546387,25.4852702 38.9377441,25.6911621 C38.6208496,25.897054 38.3693034,26.1682943 38.1831055,26.5048828 L38.1831055,26.5048828 L38.1025391,26.5048828 L37.8608398,25.4951172 L36.6201172,25.4951172 L36.6201172,31.5 L38.2583008,31.5 Z M45.4072266,31.5 L45.9765625,29.6308594 L48.8393555,29.6308594 L49.4086914,31.5 L51.2026367,31.5 L48.4204102,23.6152344 L46.3847656,23.6152344 L43.6132812,31.5 L45.4072266,31.5 Z M48.4418945,28.234375 L46.3955078,28.234375 C46.9541016,26.4261068 47.2924805,25.292806 47.4106445,24.8344727 C47.4392904,24.9633789 47.486735,25.1388346 47.5529785,25.3608398 C47.619222,25.5828451 47.9155273,26.5406901 48.4418945,28.234375 L48.4418945,28.234375 Z M54.1621094,31.6074219 C54.5738932,31.6074219 54.940918,31.5313314 55.2631836,31.3791504 C55.5854492,31.2269694 55.8343099,31.0112305 56.0097656,30.7319336 L56.0097656,30.7319336 L56.0957031,30.7319336 L56.315918,31.5 L57.5727539,31.5 L57.5727539,25.4951172 L55.9345703,25.4951172 L55.9345703,28.3203125 C55.9345703,29.0292969 55.8325195,29.5368652 55.628418,29.8430176 C55.4243164,30.1491699 55.093099,30.3022461 54.6347656,30.3022461 C54.2981771,30.3022461 54.0528971,30.193929 53.8989258,29.9772949 C53.7449544,29.7606608 53.6679688,29.4357096 53.6679688,29.0024414 L53.6679688,29.0024414 L53.6679688,25.4951172 L52.0297852,25.4951172 L52.0297852,29.4106445 C52.0297852,30.1196289 52.2088216,30.6630046 52.5668945,31.0407715 C52.9249674,31.4185384 53.4567057,31.6074219 54.1621094,31.6074219 Z M61.3486328,31.6074219 C61.9430339,31.6074219 62.4443359,31.5161133 62.8525391,31.3334961 L62.8525391,31.3334961 L62.8525391,30.1142578 C62.4514974,30.2395833 62.1077474,30.3022461 61.8212891,30.3022461 C61.6064453,30.3022461 61.4336751,30.2467448 61.3029785,30.1357422 C61.1722819,30.0247396 61.1069336,29.8528646 61.1069336,29.6201172 L61.1069336,29.6201172 L61.1069336,26.7250977 L62.7880859,26.7250977 L62.7880859,25.4951172 L61.1069336,25.4951172 L61.1069336,24.2167969 L60.0595703,24.2167969 L59.5869141,25.484375 L58.6845703,26.0322266 L58.6845703,26.7250977 L59.46875,26.7250977 L59.46875,29.6201172 C59.46875,30.2825521 59.6182454,30.7793783 59.9172363,31.1105957 C60.2162272,31.4418132 60.6933594,31.6074219 61.3486328,31.6074219 Z M65.7045898,31.5 L65.7045898,28.6748047 C65.7045898,27.9765625 65.8066406,27.4716797 66.0107422,27.1601562 C66.2148438,26.8486328 66.5460612,26.6928711 67.0043945,26.6928711 C67.6489258,26.6928711 67.9711914,27.1261393 67.9711914,27.9926758 L67.9711914,27.9926758 L67.9711914,31.5 L69.609375,31.5 L69.609375,27.5844727 C69.609375,26.8754883 69.4267578,26.3312174 69.0615234,25.9516602 C68.6962891,25.5721029 68.1609701,25.3823242 67.4555664,25.3823242 C66.6606445,25.3823242 66.0805664,25.675944 65.715332,26.2631836 L65.715332,26.2631836 L65.6293945,26.2631836 L65.6669922,25.7797852 C65.6920573,25.2892253 65.7045898,24.9777018 65.7045898,24.8452148 L65.7045898,23.1425781 L64.0664062,23.1425781 L64.0664062,31.5 L65.7045898,31.5 Z M73.8256836,31.6074219 C74.745931,31.6074219 75.4638672,31.3317057 75.9794922,30.7802734 C76.4951172,30.2288411 76.7529297,29.4643555 76.7529297,28.4868164 C76.7529297,27.8566081 76.6347656,27.3069661 76.3984375,26.8378906 C76.1621094,26.3688151 75.8237305,26.0089518 75.3833008,25.7583008 C74.9428711,25.5076497 74.4344076,25.3823242 73.8579102,25.3823242 C72.9305013,25.3823242 72.2107747,25.6544596 71.6987305,26.1987305 C71.1866862,26.7430013 70.9306641,27.5056966 70.9306641,28.4868164 C70.9306641,29.1170247 71.0488281,29.668457 71.2851562,30.1411133 C71.5214844,30.6137695 71.8598633,30.9763184 72.300293,31.2287598 C72.7407227,31.4812012 73.2491862,31.6074219 73.8256836,31.6074219 Z M73.847168,30.2915039 C73.4067383,30.2915039 73.0889486,30.1393229 72.8937988,29.8349609 C72.6986491,29.530599 72.6010742,29.0812174 72.6010742,28.4868164 C72.6010742,27.8888346 72.6977539,27.4421387 72.8911133,27.1467285 C73.0844727,26.8513184 73.3995768,26.7036133 73.8364258,26.7036133 C74.2768555,26.7036133 74.59375,26.8522135 74.7871094,27.1494141 C74.9804688,27.4466146 75.0771484,27.8924154 75.0771484,28.4868164 C75.0771484,29.0847982 74.9813639,29.5350749 74.7897949,29.8376465 C74.5982259,30.1402181 74.2840169,30.2915039 73.847168,30.2915039 Z M79.7446289,31.5 L79.7446289,28.4438477 C79.7446289,27.9604492 79.8905436,27.5844727 80.182373,27.315918 C80.4742025,27.0473633 80.8815104,26.9130859 81.4042969,26.9130859 C81.5940755,26.9130859 81.7552083,26.9309896 81.8876953,26.9667969 L81.8876953,26.9667969 L82.0112305,25.4306641 C81.8644206,25.3984375 81.680013,25.3823242 81.4580078,25.3823242 C81.085612,25.3823242 80.7409668,25.4852702 80.4240723,25.6911621 C80.1071777,25.897054 79.8556315,26.1682943 79.6694336,26.5048828 L79.6694336,26.5048828 L79.5888672,26.5048828 L79.347168,25.4951172 L78.1064453,25.4951172 L78.1064453,31.5 L79.7446289,31.5 Z M83.9233398,24.7485352 C84.2205404,24.7485352 84.4434408,24.6778158 84.592041,24.536377 C84.7406413,24.3949382 84.8149414,24.1971029 84.8149414,23.9428711 C84.8149414,23.4093424 84.5177409,23.1425781 83.9233398,23.1425781 C83.3289388,23.1425781 83.0317383,23.4093424 83.0317383,23.9428711 C83.0317383,24.4799805 83.3289388,24.7485352 83.9233398,24.7485352 Z M84.7397461,31.5 L84.7397461,25.4951172 L83.1015625,25.4951172 L83.1015625,31.5 L84.7397461,31.5 Z M90.637207,31.5 L90.637207,30.2485352 L87.8334961,30.2485352 L90.5405273,26.5585937 L90.5405273,25.4951172 L86.0610352,25.4951172 L86.0610352,26.746582 L88.6767578,26.746582 L85.8945312,30.5332031 L85.8945312,31.5 L90.637207,31.5 Z M93.2851562,31.6074219 C93.7542318,31.6074219 94.1346842,31.5402832 94.4265137,31.4060059 C94.7183431,31.2717285 95.0021159,31.0309245 95.277832,30.6835937 L95.277832,30.6835937 L95.3208008,30.6835937 L95.6376953,31.5 L96.7817383,31.5 L96.7817383,27.4985352 C96.7817383,26.7823893 96.5668945,26.2488607 96.137207,25.8979492 C95.7075195,25.5470378 95.0898438,25.371582 94.2841797,25.371582 C93.4427083,25.371582 92.6764323,25.5524089 91.9853516,25.9140625 L91.9853516,25.9140625 L92.527832,27.0205078 C93.175944,26.7304687 93.7399089,26.5854492 94.2197266,26.5854492 C94.8427734,26.5854492 95.1542969,26.8898112 95.1542969,27.4985352 L95.1542969,27.4985352 L95.1542969,27.7617187 L94.1123047,27.7939453 C93.2135417,27.8261719 92.5412598,27.993571 92.095459,28.2961426 C91.6496582,28.5987142 91.4267578,29.0686849 91.4267578,29.7060547 C91.4267578,30.3147786 91.5923665,30.7838542 91.923584,31.1132812 C92.2548014,31.4427083 92.7086589,31.6074219 93.2851562,31.6074219 Z M93.902832,30.409668 C93.3728841,30.409668 93.1079102,30.1787109 93.1079102,29.7167969 C93.1079102,29.3945312 93.2242839,29.1546224 93.4570312,28.9970703 C93.6897786,28.8395182 94.0442708,28.7535807 94.5205078,28.7392578 L94.5205078,28.7392578 L95.1542969,28.7177734 L95.1542969,29.2119141 C95.1542969,29.5735677 95.0406087,29.8636068 94.8132324,30.0820312 C94.5858561,30.3004557 94.2823893,30.409668 93.902832,30.409668 Z M100.525391,31.6074219 C101.119792,31.6074219 101.621094,31.5161133 102.029297,31.3334961 L102.029297,31.3334961 L102.029297,30.1142578 C101.628255,30.2395833 101.284505,30.3022461 100.998047,30.3022461 C100.783203,30.3022461 100.610433,30.2467448 100.479736,30.1357422 C100.34904,30.0247396 100.283691,29.8528646 100.283691,29.6201172 L100.283691,29.6201172 L100.283691,26.7250977 L101.964844,26.7250977 L101.964844,25.4951172 L100.283691,25.4951172 L100.283691,24.2167969 L99.2363281,24.2167969 L98.7636719,25.484375 L97.8613281,26.0322266 L97.8613281,26.7250977 L98.6455078,26.7250977 L98.6455078,29.6201172 C98.6455078,30.2825521 98.7950033,30.7793783 99.0939941,31.1105957 C99.392985,31.4418132 99.8701172,31.6074219 100.525391,31.6074219 Z M104.064941,24.7485352 C104.362142,24.7485352 104.585042,24.6778158 104.733643,24.536377 C104.882243,24.3949382 104.956543,24.1971029 104.956543,23.9428711 C104.956543,23.4093424 104.659342,23.1425781 104.064941,23.1425781 C103.47054,23.1425781 103.17334,23.4093424 103.17334,23.9428711 C103.17334,24.4799805 103.47054,24.7485352 104.064941,24.7485352 Z M104.881348,31.5 L104.881348,25.4951172 L103.243164,25.4951172 L103.243164,31.5 L104.881348,31.5 Z M109.129883,31.6074219 C110.05013,31.6074219 110.768066,31.3317057 111.283691,30.7802734 C111.799316,30.2288411 112.057129,29.4643555 112.057129,28.4868164 C112.057129,27.8566081 111.938965,27.3069661 111.702637,26.8378906 C111.466309,26.3688151 111.12793,26.0089518 110.6875,25.7583008 C110.24707,25.5076497 109.738607,25.3823242 109.162109,25.3823242 C108.234701,25.3823242 107.514974,25.6544596 107.00293,26.1987305 C106.490885,26.7430013 106.234863,27.5056966 106.234863,28.4868164 C106.234863,29.1170247 106.353027,29.668457 106.589355,30.1411133 C106.825684,30.6137695 107.164062,30.9763184 107.604492,31.2287598 C108.044922,31.4812012 108.553385,31.6074219 109.129883,31.6074219 Z M109.151367,30.2915039 C108.710938,30.2915039 108.393148,30.1393229 108.197998,29.8349609 C108.002848,29.530599 107.905273,29.0812174 107.905273,28.4868164 C107.905273,27.8888346 108.001953,27.4421387 108.195312,27.1467285 C108.388672,26.8513184 108.703776,26.7036133 109.140625,26.7036133 C109.581055,26.7036133 109.897949,26.8522135 110.091309,27.1494141 C110.284668,27.4466146 110.381348,27.8924154 110.381348,28.4868164 C110.381348,29.0847982 110.285563,29.5350749 110.093994,29.8376465 C109.902425,30.1402181 109.588216,30.2915039 109.151367,30.2915039 Z M115.048828,31.5 L115.048828,28.6748047 C115.048828,27.9658203 115.150879,27.458252 115.35498,27.1520996 C115.559082,26.8459473 115.890299,26.6928711 116.348633,26.6928711 C116.685221,26.6928711 116.930501,26.8011882 117.084473,27.0178223 C117.238444,27.2344564 117.31543,27.5594076 117.31543,27.9926758 L117.31543,27.9926758 L117.31543,31.5 L118.953613,31.5 L118.953613,27.5844727 C118.953613,26.8719076 118.772786,26.3267415 118.411133,25.9489746 C118.049479,25.5712077 117.519531,25.3823242 116.821289,25.3823242 C116.413086,25.3823242 116.048747,25.4566243 115.728271,25.6052246 C115.407796,25.7538249 115.15625,25.9731445 114.973633,26.2631836 L114.973633,26.2631836 L114.882324,26.2631836 L114.662109,25.4951172 L113.410645,25.4951172 L113.410645,31.5 L115.048828,31.5 Z M125.264648,31.5 L125.264648,28.3955078 L127.928711,28.3955078 L127.928711,27.0366211 L125.264648,27.0366211 L125.264648,25.0117187 L128.127441,25.0117187 L128.127441,23.6474609 L123.626465,23.6474609 L123.626465,31.5 L125.264648,31.5 Z M132.064453,31.6074219 C132.984701,31.6074219 133.702637,31.3317057 134.218262,30.7802734 C134.733887,30.2288411 134.991699,29.4643555 134.991699,28.4868164 C134.991699,27.8566081 134.873535,27.3069661 134.637207,26.8378906 C134.400879,26.3688151 134.0625,26.0089518 133.62207,25.7583008 C133.181641,25.5076497 132.673177,25.3823242 132.09668,25.3823242 C131.169271,25.3823242 130.449544,25.6544596 129.9375,26.1987305 C129.425456,26.7430013 129.169434,27.5056966 129.169434,28.4868164 C129.169434,29.1170247 129.287598,29.668457 129.523926,30.1411133 C129.760254,30.6137695 130.098633,30.9763184 130.539062,31.2287598 C130.979492,31.4812012 131.487956,31.6074219 132.064453,31.6074219 Z M132.085938,30.2915039 C131.645508,30.2915039 131.327718,30.1393229 131.132568,29.8349609 C130.937419,29.530599 130.839844,29.0812174 130.839844,28.4868164 C130.839844,27.8888346 130.936523,27.4421387 131.129883,27.1467285 C131.323242,26.8513184 131.638346,26.7036133 132.075195,26.7036133 C132.515625,26.7036133 132.83252,26.8522135 133.025879,27.1494141 C133.219238,27.4466146 133.315918,27.8924154 133.315918,28.4868164 C133.315918,29.0847982 133.220133,29.5350749 133.028564,29.8376465 C132.836995,30.1402181 132.522786,30.2915039 132.085938,30.2915039 Z M137.983398,31.5 L137.983398,28.4438477 C137.983398,27.9604492 138.129313,27.5844727 138.421143,27.315918 C138.712972,27.0473633 139.12028,26.9130859 139.643066,26.9130859 C139.832845,26.9130859 139.993978,26.9309896 140.126465,26.9667969 L140.126465,26.9667969 L140.25,25.4306641 C140.10319,25.3984375 139.918783,25.3823242 139.696777,25.3823242 C139.324382,25.3823242 138.979736,25.4852702 138.662842,25.6911621 C138.345947,25.897054 138.094401,26.1682943 137.908203,26.5048828 L137.908203,26.5048828 L137.827637,26.5048828 L137.585938,25.4951172 L136.345215,25.4951172 L136.345215,31.5 L137.983398,31.5 Z M142.978516,31.5 L142.978516,28.6748047 C142.978516,27.969401 143.073405,27.4627279 143.263184,27.1547852 C143.452962,26.8468424 143.757324,26.6928711 144.17627,26.6928711 C144.487793,26.6928711 144.716064,26.8011882 144.861084,27.0178223 C145.006104,27.2344564 145.078613,27.5594076 145.078613,27.9926758 L145.078613,27.9926758 L145.078613,31.5 L146.716797,31.5 L146.716797,28.4868164 C146.716797,27.8637695 146.816162,27.4090169 147.014893,27.1225586 C147.213623,26.8361003 147.513509,26.6928711 147.914551,26.6928711 C148.226074,26.6928711 148.454346,26.8011882 148.599365,27.0178223 C148.744385,27.2344564 148.816895,27.5594076 148.816895,27.9926758 L148.816895,27.9926758 L148.816895,31.5 L150.460449,31.5 L150.460449,27.5844727 C150.460449,26.8146159 150.285889,26.255127 149.936768,25.9060059 C149.587646,25.5568848 149.072917,25.3823242 148.392578,25.3823242 C147.998698,25.3823242 147.645101,25.4593099 147.331787,25.6132812 C147.018473,25.7672526 146.78125,25.9838867 146.620117,26.2631836 L146.620117,26.2631836 L146.475098,26.2631836 C146.156413,25.675944 145.547689,25.3823242 144.648926,25.3823242 C144.255046,25.3823242 143.905924,25.4602051 143.601562,25.6159668 C143.297201,25.7717285 143.064453,25.9874674 142.90332,26.2631836 L142.90332,26.2631836 L142.812012,26.2631836 L142.591797,25.4951172 L141.340332,25.4951172 L141.340332,31.5 L142.978516,31.5 Z" id="path-1"></path>
        <path d="M2.30273438,6.39192708 C2.72851562,6.39192708 3.109375,6.32845052 3.4453125,6.2014974 L3.4453125,6.2014974 L3.4453125,5.60091146 C3.26171875,5.65755208 3.08496094,5.7039388 2.91503906,5.74007161 C2.74511719,5.77620443 2.56933594,5.79427083 2.38769531,5.79427083 C1.96777344,5.79427083 1.64697266,5.65950521 1.42529297,5.38997396 C1.20361328,5.12044271 1.09277344,4.72298177 1.09277344,4.19759115 C1.09277344,3.69563802 1.20800781,3.30208333 1.43847656,3.01692708 C1.66894531,2.73177083 1.98535156,2.58919271 2.38769531,2.58919271 C2.56542969,2.58919271 2.73486328,2.61507161 2.89599609,2.66682943 C3.05712891,2.71858724 3.20996094,2.77864583 3.35449219,2.84700521 L3.35449219,2.84700521 L3.60644531,2.2639974 C3.23535156,2.08040365 2.83105469,1.98860677 2.39355469,1.98860677 C1.97753906,1.98860677 1.61523438,2.07747396 1.30664062,2.25520833 C0.998046875,2.43294271 0.762207031,2.68880208 0.599121094,3.02278646 C0.436035156,3.35677083 0.354492188,3.74641927 0.354492188,4.19173177 C0.354492188,4.89876302 0.522460938,5.44222005 0.858398438,5.82210286 C1.19433594,6.20198568 1.67578125,6.39192708 2.30273438,6.39192708 Z M6.98517409,6.39192708 C7.62384596,6.39192708 8.11749831,6.19856771 8.46613112,5.81184896 C8.81476393,5.42513021 8.98908034,4.88313802 8.98908034,4.1858724 C8.98908034,3.48665365 8.81525221,2.94466146 8.46759596,2.55989583 C8.11993971,2.17513021 7.62775221,1.9827474 6.99103346,1.9827474 C6.34454909,1.9827474 5.84699049,2.17220052 5.49835768,2.55110677 C5.14972487,2.93001302 4.97540846,3.47298177 4.97540846,4.18001302 C4.97540846,4.88704427 5.14874831,5.43245443 5.49542799,5.81624349 C5.84210768,6.20003255 6.33868971,6.39192708 6.98517409,6.39192708 Z M6.98517409,5.79427083 C6.56720534,5.79427083 6.25177565,5.65804036 6.03888502,5.38557943 C5.8259944,5.11311849 5.71954909,4.71321615 5.71954909,4.1858724 C5.71954909,3.66048177 5.82648268,3.26204427 6.04034987,2.9905599 C6.25421706,2.71907552 6.57111159,2.58333333 6.99103346,2.58333333 C7.40704909,2.58333333 7.72003737,2.71907552 7.92999831,2.9905599 C8.13995924,3.26204427 8.24493971,3.66048177 8.24493971,4.1858724 C8.24493971,4.71907552 8.13898268,5.12044271 7.92706862,5.38997396 C7.71515456,5.65950521 7.40118971,5.79427083 6.98517409,5.79427083 Z M12.3941763,6.33333333 L13.8941763,2.05013021 L13.1676138,2.05013021 L12.2740591,4.7014974 C12.240856,4.7952474 12.1978872,4.93977865 12.1451529,5.13509115 C12.0924185,5.33040365 12.053356,5.50227865 12.0279654,5.65071615 C12.0123404,5.5530599 11.9781607,5.40413411 11.9254263,5.2039388 C11.8726919,5.00374349 11.8228872,4.84016927 11.7760122,4.71321615 L11.7760122,4.71321615 L10.8824575,2.05013021 L10.1617544,2.05013021 L11.655895,6.33333333 L12.3941763,6.33333333 Z M15.9779832,6.33333333 L15.9779832,2.05013021 L15.2777879,2.05013021 L15.2777879,6.33333333 L15.9779832,6.33333333 Z M19.1252667,6.33333333 C19.8635479,6.33333333 20.4289776,6.14632161 20.8215557,5.77229818 C21.2141338,5.39827474 21.4104229,4.8577474 21.4104229,4.15071615 C21.4104229,3.48470052 21.2209698,2.96809896 20.8420635,2.60091146 C20.4631573,2.23372396 19.9328838,2.05013021 19.2512432,2.05013021 L19.2512432,2.05013021 L17.9270245,2.05013021 L17.9270245,6.33333333 L19.1252667,6.33333333 Z M19.1252667,5.74446615 L18.6272198,5.74446615 L18.6272198,2.63606771 L19.2336651,2.63606771 C20.1926495,2.63606771 20.6721417,3.14876302 20.6721417,4.17415365 C20.6721417,5.22102865 20.1565167,5.74446615 19.1252667,5.74446615 L19.1252667,5.74446615 Z M24.2998939,5.01790365 L24.2998939,4.43196615 L22.7940345,4.43196615 L22.7940345,5.01790365 L24.2998939,5.01790365 Z M27.6170992,6.33333333 L27.6170992,2.05013021 L27.0428805,2.05013021 L25.7831148,3.04036458 L26.128818,3.47688802 C26.5018648,3.17415365 26.7211031,2.99446615 26.7865328,2.93782552 C26.8519625,2.8811849 26.9071383,2.82942708 26.9520601,2.78255208 C26.9364351,2.97591146 26.9286226,3.23763021 26.9286226,3.56770833 L26.9286226,3.56770833 L26.9286226,6.33333333 L27.6170992,6.33333333 Z M30.6911405,6.39192708 C31.3747342,6.39192708 31.886453,6.18391927 32.2262967,5.76790365 C32.5661405,5.35188802 32.7360624,4.72200521 32.7360624,3.87825521 C32.7360624,3.48372396 32.6745389,3.14534505 32.551492,2.86311849 C32.4284452,2.58089193 32.2536405,2.3655599 32.027078,2.2171224 C31.8005155,2.0686849 31.5348905,1.99446615 31.230203,1.99446615 C30.7966092,1.99446615 30.4543241,2.12679036 30.2033475,2.3914388 C29.952371,2.65608724 29.8268827,3.01204427 29.8268827,3.4593099 C29.8268827,3.87141927 29.9352811,4.19563802 30.152078,4.43196615 C30.3688749,4.66829427 30.6667264,4.78645833 31.0456327,4.78645833 C31.2643827,4.78645833 31.4553006,4.74739583 31.6183866,4.66927083 C31.7814725,4.59114583 31.9206327,4.46419271 32.035867,4.28841146 L32.035867,4.28841146 L32.0710233,4.28841146 C32.0495389,4.82356771 31.9245389,5.21614583 31.6960233,5.46614583 C31.4675077,5.71614583 31.120828,5.84114583 30.6559842,5.84114583 C30.480203,5.84114583 30.3053983,5.81673177 30.1315702,5.76790365 L30.1315702,5.76790365 L30.1315702,6.34505208 C30.2448514,6.37630208 30.4313749,6.39192708 30.6911405,6.39192708 Z M31.2184842,4.23860677 C30.9782499,4.23860677 30.7990506,4.16878255 30.6808866,4.02913411 C30.5627225,3.88948568 30.5036405,3.69759115 30.5036405,3.45345052 C30.5036405,3.17220052 30.567117,2.9539388 30.6940702,2.79866536 C30.8210233,2.64339193 31.0036405,2.56575521 31.2419217,2.56575521 C31.3981717,2.56575521 31.5368436,2.60970052 31.6579374,2.69759115 C31.7790311,2.78548177 31.8732694,2.90511068 31.9406522,3.05647786 C32.008035,3.20784505 32.0417264,3.37044271 32.0417264,3.54427083 C32.0417264,3.72981771 31.9626249,3.89192708 31.8044217,4.03059896 C31.6462186,4.16927083 31.4509061,4.23860677 31.2184842,4.23860677 Z M37.4603168,6.33333333 L37.4603168,4.62239583 L38.151723,4.62239583 L39.1771137,6.33333333 L39.9739887,6.33333333 L38.7640277,4.43782552 C39.3187152,4.21126302 39.596059,3.83138021 39.596059,3.29817708 C39.596059,2.88020833 39.4632465,2.56770833 39.1976215,2.36067708 C38.9319965,2.15364583 38.5228168,2.05013021 37.9700824,2.05013021 L37.9700824,2.05013021 L36.7601215,2.05013021 L36.7601215,6.33333333 L37.4603168,6.33333333 Z M37.9466449,4.04231771 L37.4603168,4.04231771 L37.4603168,2.64192708 L37.9232074,2.64192708 C38.2415668,2.64192708 38.479848,2.69466146 38.6380512,2.80013021 C38.7962543,2.90559896 38.8753558,3.07942708 38.8753558,3.32161458 C38.8753558,3.55989583 38.8021137,3.73958333 38.6556293,3.86067708 C38.5091449,3.98177083 38.2728168,4.04231771 37.9466449,4.04231771 L37.9466449,4.04231771 Z M43.8361159,6.33333333 L43.8361159,5.73860677 L42.1134596,5.73860677 L42.1134596,4.39388021 L43.7277174,4.39388021 L43.7277174,3.80794271 L42.1134596,3.80794271 L42.1134596,2.64192708 L43.8361159,2.64192708 L43.8361159,2.05013021 L41.4132643,2.05013021 L41.4132643,6.33333333 L43.8361159,6.33333333 Z M46.4970712,6.39192708 C46.9814462,6.39192708 47.361329,6.28352865 47.6367196,6.06673177 C47.9121103,5.8499349 48.0498056,5.55110677 48.0498056,5.1702474 C48.0498056,4.97688802 48.0156259,4.80891927 47.9472665,4.66634115 C47.8789071,4.52376302 47.7714853,4.39583333 47.6250009,4.28255208 C47.4785165,4.16927083 47.2480478,4.04720052 46.9335946,3.91634115 C46.6542978,3.80110677 46.4609384,3.70833333 46.3535165,3.63802083 C46.2460946,3.56770833 46.1689462,3.4930013 46.1220712,3.41389974 C46.0751962,3.33479818 46.0517587,3.23958333 46.0517587,3.12825521 C46.0517587,2.96614583 46.1103525,2.83577474 46.22754,2.73714193 C46.3447275,2.63850911 46.5166025,2.58919271 46.743165,2.58919271 C47.0419931,2.58919271 47.3818368,2.66927083 47.7626962,2.82942708 L47.7626962,2.82942708 L47.9853525,2.25813802 C47.5791025,2.07845052 47.1708993,1.98860677 46.7607431,1.98860677 C46.3330087,1.98860677 45.9921884,2.09114583 45.7382821,2.29622396 C45.4843759,2.50130208 45.3574228,2.78255208 45.3574228,3.13997396 C45.3574228,3.42513021 45.4375009,3.66927083 45.5976571,3.87239583 C45.7578134,4.07552083 46.033204,4.2561849 46.423829,4.41438802 C46.8027353,4.56673177 47.0527353,4.69856771 47.173829,4.80989583 C47.2949228,4.92122396 47.3554696,5.05696615 47.3554696,5.2171224 C47.3554696,5.39485677 47.2895517,5.53645833 47.1577157,5.64192708 C47.0258798,5.74739583 46.82129,5.80013021 46.5439462,5.80013021 C46.3544931,5.80013021 46.1499032,5.77376302 45.9301767,5.72102865 C45.7104501,5.66829427 45.5029306,5.59602865 45.3076181,5.50423177 L45.3076181,5.50423177 L45.3076181,6.16634115 C45.6162118,6.31673177 46.0126962,6.39192708 46.4970712,6.39192708 Z M50.3972844,6.33333333 L50.3972844,4.73079427 L50.8425969,4.73079427 C51.3836125,4.73079427 51.8006047,4.61165365 52.0935734,4.3733724 C52.3865422,4.13509115 52.5330265,3.79231771 52.5330265,3.34505208 C52.5330265,2.91927083 52.3997258,2.59700521 52.1331242,2.37825521 C51.8665226,2.15950521 51.4656437,2.05013021 50.9304875,2.05013021 L50.9304875,2.05013021 L49.697089,2.05013021 L49.697089,6.33333333 L50.3972844,6.33333333 Z M50.7693547,4.14192708 L50.3972844,4.14192708 L50.3972844,2.63606771 L50.8836125,2.63606771 C51.2019719,2.63606771 51.4363469,2.69661458 51.5867375,2.81770833 C51.7371281,2.93880208 51.8123234,3.12239583 51.8123234,3.36848958 C51.8123234,3.63411458 51.728339,3.82942708 51.5603703,3.95442708 C51.3924015,4.07942708 51.1287297,4.14192708 50.7693547,4.14192708 L50.7693547,4.14192708 Z M56.0055053,6.39192708 C56.6441772,6.39192708 57.1378295,6.19856771 57.4864624,5.81184896 C57.8350952,5.42513021 58.0094116,4.88313802 58.0094116,4.1858724 C58.0094116,3.48665365 57.8355834,2.94466146 57.4879272,2.55989583 C57.1402709,2.17513021 56.6480834,1.9827474 56.0113647,1.9827474 C55.3648803,1.9827474 54.8673217,2.17220052 54.5186889,2.55110677 C54.1700561,2.93001302 53.9957397,3.47298177 53.9957397,4.18001302 C53.9957397,4.88704427 54.1690795,5.43245443 54.5157592,5.81624349 C54.8624389,6.20003255 55.3590209,6.39192708 56.0055053,6.39192708 Z M56.0055053,5.79427083 C55.5875366,5.79427083 55.2721069,5.65804036 55.0592163,5.38557943 C54.8463256,5.11311849 54.7398803,4.71321615 54.7398803,4.1858724 C54.7398803,3.66048177 54.8468139,3.26204427 55.0606811,2.9905599 C55.2745483,2.71907552 55.5914428,2.58333333 56.0113647,2.58333333 C56.4273803,2.58333333 56.7403686,2.71907552 56.9503295,2.9905599 C57.1602905,3.26204427 57.2652709,3.66048177 57.2652709,4.1858724 C57.2652709,4.71907552 57.1593139,5.12044271 56.9473999,5.38997396 C56.7354858,5.65950521 56.4215209,5.79427083 56.0055053,5.79427083 Z M60.3832575,6.33333333 L60.3832575,4.10677083 C60.3832575,3.80598958 60.3695857,3.47395833 60.3422419,3.11067708 L60.3422419,3.11067708 L60.3275935,2.9202474 L60.351031,2.9202474 L62.4574763,6.33333333 L63.3158747,6.33333333 L63.3158747,2.05013021 L62.6742732,2.05013021 L62.6749763,4.39663411 C62.6768513,4.54304036 62.6824763,4.72913411 62.6918513,4.95491536 C62.70357,5.23714193 62.7113825,5.40071615 62.7152888,5.44563802 L62.7152888,5.44563802 L62.6977107,5.44563802 L60.5971247,2.05013021 L59.7475153,2.05013021 L59.7475153,6.33333333 L60.3832575,6.33333333 Z M66.1819082,6.39192708 C66.6662832,6.39192708 67.046166,6.28352865 67.3215566,6.06673177 C67.5969472,5.8499349 67.7346426,5.55110677 67.7346426,5.1702474 C67.7346426,4.97688802 67.7004629,4.80891927 67.6321035,4.66634115 C67.5637441,4.52376302 67.4563222,4.39583333 67.3098379,4.28255208 C67.1633535,4.16927083 66.9328847,4.04720052 66.6184316,3.91634115 C66.3391347,3.80110677 66.1457754,3.70833333 66.0383535,3.63802083 C65.9309316,3.56770833 65.8537832,3.4930013 65.8069082,3.41389974 C65.7600332,3.33479818 65.7365957,3.23958333 65.7365957,3.12825521 C65.7365957,2.96614583 65.7951894,2.83577474 65.9123769,2.73714193 C66.0295644,2.63850911 66.2014394,2.58919271 66.4280019,2.58919271 C66.7268301,2.58919271 67.0666738,2.66927083 67.4475332,2.82942708 L67.4475332,2.82942708 L67.6701894,2.25813802 C67.2639394,2.07845052 66.8557363,1.98860677 66.4455801,1.98860677 C66.0178457,1.98860677 65.6770254,2.09114583 65.4231191,2.29622396 C65.1692129,2.50130208 65.0422597,2.78255208 65.0422597,3.13997396 C65.0422597,3.42513021 65.1223379,3.66927083 65.2824941,3.87239583 C65.4426504,4.07552083 65.718041,4.2561849 66.108666,4.41438802 C66.4875722,4.56673177 66.7375722,4.69856771 66.858666,4.80989583 C66.9797597,4.92122396 67.0403066,5.05696615 67.0403066,5.2171224 C67.0403066,5.39485677 66.9743887,5.53645833 66.8425527,5.64192708 C66.7107168,5.74739583 66.5061269,5.80013021 66.2287832,5.80013021 C66.0393301,5.80013021 65.8347402,5.77376302 65.6150137,5.72102865 C65.3952871,5.66829427 65.1877676,5.59602865 64.9924551,5.50423177 L64.9924551,5.50423177 L64.9924551,6.16634115 C65.3010488,6.31673177 65.6975332,6.39192708 66.1819082,6.39192708 Z M71.8047776,6.33333333 L71.8047776,5.73860677 L70.0821213,5.73860677 L70.0821213,4.39388021 L71.6963791,4.39388021 L71.6963791,3.80794271 L70.0821213,3.80794271 L70.0821213,2.64192708 L71.8047776,2.64192708 L71.8047776,2.05013021 L69.381926,2.05013021 L69.381926,6.33333333 L71.8047776,6.33333333 Z" id="path-2"></path>
    </defs>
    <g id="Page-1" stroke="none" stroke-width="1" fill="none" fill-rule="evenodd">
        <g id="TFW-logo-mobile">
            <g>
                <g>
                    <g id="Group" transform="translate(67.500000, 3.166667)" fill-rule="nonzero">
                        <g id="Group-2">
                            <g id="TemporaryForeignWorkerAuthorizationForm">
                                <use fill="#000000" xlink:href="#path-1"></use>
                                <use fill="#FFFFFF" xlink:href="#path-1"></use>
                            </g>
                            <g id="COVID-19RESPONSE">
                                <use fill="#000000" xlink:href="#path-2"></use>
                                <use fill="#FFFFFF" xlink:href="#path-2"></use>
                            </g>
                        </g>
                    </g>
                    <g id="Logo" transform="translate(0.000000, 6.666667)" fill-rule="nonzero">
                        <path d="M5.986,22.6953333 C12.266,22.6953333 20.948,26.2353333 27.2526667,26.2353333 C31.748,26.2353333 36.1453333,25.0413333 38.632,23.2713333 C38.8062288,22.2170881 38.8954051,21.1505402 38.8990015,20.082 C38.9391469,13.2290768 35.3063794,6.87932285 29.3782286,3.4411224 C23.4500777,0.00292194956 16.134589,0.00292194956 10.2064381,3.4411224 C4.27828723,6.87932285 0.645519725,13.2290768 0.685665191,20.082 C0.68280855,21.1414484 0.773159313,22.1991101 0.956,23.2426667 C2.61347501,22.9137423 4.29657079,22.7305982 5.986,22.6953333 Z" id="Path_350" fill="#FFFFFF"></path>
                        <g id="Group_15" transform="translate(0.872000, 0.098667)" fill="#FDB913">
                            <polygon id="Path_351" points="31.2726667 15.558 32.0173333 15.8673333 33.7033333 14.7013333"></polygon>
                            <path d="M3.10466667,14.252 L1.124,13.5493333 L1.22266667,13.3106667 L3.45666667,14.0553333 L3.47066667,14.0553333 L3.766,13.8866667 L3.87866667,13.8166667 L1.43266667,12.7766667 L1.53133333,12.524 L6.998,14.7153333 L7.18066667,14.6453333 L1.77,12.018 L1.89666667,11.7653333 L7.61466667,14.432 L7.69866667,14.39 L2.14933333,11.2433333 L2.262,11.0046667 L10.2666667,15.362 C10.3366667,15.2353333 10.4666667,15.0246667 10.5333333,14.8953333 C8.63034348,13.1168596 6.63253549,11.4426356 4.54866667,9.88 C6.72781622,11.3046675 8.98366691,12.6084139 11.306,13.7853333 C11.4326667,13.6306667 11.5306667,13.5046667 11.6573333,13.364 L4.83266667,7.354 L5.01533333,7.17133333 L10.5366667,11.878 L5.42266667,6.75 L5.62266667,6.55 L11.356,12.0993333 L6.01266667,6.174 L6.22333333,5.99133333 L11.1566667,11.274 L6.64533333,5.6 L6.84533333,5.41733333 L12.6193333,12.442 C12.774,12.3153333 12.886,12.2173333 13.0546667,12.0906667 C11.9634105,9.73923647 10.7433366,7.44976182 9.4,5.23266667 C10.8812273,7.35862497 12.4757536,9.4033574 14.1766667,11.358 C14.3453333,11.2593333 14.514,11.1753333 14.6826667,11.0913333 L14.6546667,11.0773333 L10.5926667,3 L10.8313333,2.88733333 L14.1893333,9.308 L11.3653333,2.66133333 L11.618,2.54866667 L14.8666667,9.84066667 L12.124,2.33866667 L12.3766667,2.24 L14.9766667,8.99733333 L12.9393333,2.04333333 L13.192,1.95933333 L15.8893333,10.5853333 L15.8893333,10.6133333 L15.8893333,10.6133333 L16.4373333,10.4446667 C16.3008477,7.87058762 16.0289157,5.30548089 15.6226667,2.76 C16.194761,5.2738973 16.9029142,7.75488155 17.744,10.192 C17.9266667,10.164 18.1233333,10.15 18.32,10.136 L18.32,10.122 L18.348,10.122 L18.334,10.108 L17.5753333,1.088 L17.842,1.074 L18.5446667,8.29533333 L18.418,1.06 L18.6986667,1.046 L18.9793333,9.026 L19.2613333,1.046 L19.542,1.06 L19.4153333,8.29533333 L20.118,1.074 L20.3846667,1.088 L19.6513333,10.0933333 L19.6373333,10.1073333 L19.6513333,10.1073333 C19.834,10.1213333 20.0306667,10.1353333 20.2133333,10.1633333 C21.0564444,7.73153372 21.7657289,5.25538069 22.338,2.746 C21.9311902,5.28671021 21.6592537,7.84718652 21.5233333,10.4166667 C21.7097259,10.459981 21.8928438,10.516342 22.0713333,10.5853333 L24.7686667,1.98533333 L25.0213333,2.06933333 L22.97,9.026 L25.5686667,2.26666667 L25.8213333,2.36533333 L23.0966667,9.86666667 L26.3413333,2.57733333 L26.594,2.69 L23.7273333,9.34933333 L27.0853333,2.92866667 L27.324,3.04133333 L23.2933333,11.0906667 L23.2933333,11.0906667 C23.462,11.1746667 23.6166667,11.2593333 23.7853333,11.3433333 C25.4768084,9.3982395 27.0617922,7.36304203 28.5333333,5.24666667 C27.1967329,7.44951226 25.9820179,9.72404268 24.8946667,12.06 C25.0505732,12.1740398 25.2005468,12.2959768 25.344,12.4253333 L31.048,5.47133333 L31.248,5.654 L26.7333333,11.33 L31.6666667,6.04733333 L31.8773333,6.23 L26.5386667,12.1586667 L32.272,6.60933333 L32.472,6.80933333 L27.3533333,11.92 L32.8746667,7.21333333 L33.0573333,7.396 L26.2993333,13.3386667 L26.2993333,13.3386667 C26.412,13.4653333 26.524,13.6053333 26.6366667,13.746 C28.9404804,12.5778381 31.1776974,11.2827361 33.338,9.86666667 C31.2709796,11.4187215 29.2873308,13.0788091 27.3953333,14.84 C27.4793333,14.9806667 27.606,15.2193333 27.6906667,15.36 L35.586,11.0613333 L35.6986667,11.3 L29.3906667,14.8826667 L35.9513333,11.834 L36.078,12.0866667 L29.966,15.0666667 L30.0786667,15.1086667 L36.288,12.594 L36.3866667,12.8466667 L30.6126667,15.3053333 L30.7253333,15.3473333 L34.574,14.0666667 L35.15,13.6593333 L35.35,13.8 L36.6166667,13.3786667 L36.7153333,13.6173333 L35.614,14 L37.2,15.2073333 L37.706,15.488 C35.6009275,6.70575731 27.6962836,0.550868585 18.6659665,0.662627959 C9.63564944,0.774387333 1.88574926,7.12301699 -0.00133333333,15.9546667 C0.0266666667,15.9406667 0.0406666667,15.9266667 0.0686666667,15.9266667 L0.307333333,15.828 L0.448,15.758 L3.10466667,14.252 Z" id="Path_352"></path>
                        </g>
                        <path d="M0.76,23.6373333 C2.48751358,23.2993193 4.24031153,23.1066453 6,23.0613333 C12.28,23.0613333 20.962,26.6013333 27.2666667,26.6013333 C31.8886667,26.6013333 36.4,25.3346667 38.8566667,23.4826667 C39.0549732,22.3696568 39.1538077,21.2412033 39.1520244,20.1106667 C39.1538041,18.5868788 38.9747745,17.0682604 38.6186667,15.5866667 L35.9946667,14.126 L32.918,16.2893333 L30.8386667,15.4893333 C30.136,15.8406667 25.8093333,18.7346667 25.8093333,18.7346667 L24.1513333,17.526 L22.37,17.1746667 L19.996,15.4466667 L17.2706667,17.3133333 C17.2706667,17.3133333 14.222,19.0833333 14.124,19.0833333 C14.026,19.0833333 10.4573333,16.2593333 10.4573333,16.2593333 L8.78533333,14.5313333 C8.50466667,14.714 7.38066667,15.22 7.38066667,15.22 L7.32466667,15.234 L6.23666667,14.8986667 L4.918,14.196 L0.942666667,16.0226667 C0.914666667,16.0366667 0.900666667,16.0506667 0.872666667,16.0506667 C0.3324961,18.5470754 0.294197701,21.1259853 0.76,23.6373333 L0.76,23.6373333 Z" id="Path_353" fill="#004B8D"></path>
                    </g>
                    <rect id="Rectangle" fill="#FCBA19" x="53.3333333" y="0" width="1" height="40"></rect>
                </g>
            </g>
        </g>
    </g>
</svg>